<?xml version="1.0" encoding="UTF-8"?>
<svg id="Layer_1" data-name="Layer 1" xmlns="http://www.w3.org/2000/svg" viewBox="0 0 1000 1000">
  <defs>
    <style>
      .cls-1 {
        fill: #fff;
      }

      .cls-2 {
        fill: #f7e8d7;
      }

      .cls-3 {
        fill: #010101;
      }
    </style>
  </defs>
  <g>
    <path class="cls-1" d="m541.81,196.52h.03c0,6.73,0,13.46,0,20.19,0,1.05,2.06.23,3.57.33,2.97.21,4.19-2.34,4.89-4.99.14-.51.33-1.02.42-1.54,1.15-6.36,1.5-12.78,1.29-19.24-.11-3.49-.28-6.99-.5-10.48-.14-2.24,1.02-5.2-.63-6.52-1.72-1.38-4.65-.29-7.05-.47-1.63-.12-2.07.59-2.06,2.12.06,6.86.02,13.73.02,20.59Z"/>
    <path class="cls-1" d="m434.14,160.02c.81,0,1.62-.03,2.43,0,7.96.23,15.9-.56,23.84-.64,9.04-.09,18.02-.73,26.98-1.82,3.11-.38,6.48-.78,8.07-4.37,1.47-3.31,3.23-6.49,4.69-9.8,1.13-2.57,2.19-5.18,1.99-8.13-.18-2.69-1.21-4.31-3.8-4.94-1.95-.48-3.98-.93-5.97-.9-6.22.09-12.36-.93-18.56-1.04l.08-1.31c2.15-.13,4.33-.07,6.43-.43,5.18-.88,10.44-1.1,15.64-1.27,9.54-.31,19.06-1.33,28.63-.99.8.03,1.6-.16,2.4-.25.64.16,1.46.33,1.55-.52.1-.93-.76-.77-1.38-.74-1.33-.12-2.66-.21-4-.42-5.03-.8-10.09-1.81-15.16-1.94-6.71-.18-13.42-.36-20.17.5-7.44.96-14.96,1.35-22.37,2.61-5.7.97-11.27,2.31-16.5,4.87-5.3,2.6-9.78,6.11-12.73,11.35-3.29,5.85-3.37,12.33-3.62,18.76-.04.98.56,1.44,1.53,1.43Z"/>
    <path class="cls-1" d="m524.76,176.76c-1.4,12.63-.85,25.29-.59,37.93.11,5.14.9,5.11,5.31,3.99.52-.13,1.06-.16,1.59-.26,2.39-.46,3.18-1.23,3.39-3.7.45-5.22,1.16-10.44.75-15.54.42-7.72-.97-15.22-.71-22.77.04-1.28-.34-2.02-1.81-1.93-1.88.12-3.77.14-5.65.13-1.48,0-2.11.62-2.28,2.14Z"/>
    <path class="cls-1" d="m425.12,172.86c0-.4.04-.83-.07-1.2-.1-.35-.38-.92-.6-.93-1.6-.07-3.26-.25-4.81.07-1.25.26-1.45,1.7-1.89,2.84-.95,2.47-.74,5.03-.88,7.56-.41,7.53.15,14.99,1.87,22.34.73,3.11,2.23,5.74,5.4,7.05.37.02.74.04,1.12.06h0c.49-1.69.63-3.42.59-5.18-.26-10.87-.49-21.74-.73-32.61Z"/>
    <path class="cls-1" d="m866.14,427.24c-5.22.5-10.42,1.33-15.69,1.28-.4,0-.8.1-1.2.17-4.3.67-8.66.73-12.92.19-5.76-.73-11.6.02-17.3-1.27-3.31-1.5-6.94-1.68-10.39-2.58-1.15-.3-2.34-.49-3.53-.65-.87-.11-1.57.29-2,1.05-.53.95.21,1.5.77,2.02,1,.92,2.26,1.36,3.55,1.78,6.2,2.02,12.58,3.06,19.07,3.55,5.79.56,11.63.68,17.39.14,6.53-.62,13.07-1.46,19.49-2.94,1.06-.25,2.1-.51,3.05-.98.62-.31,1.81-.42,1.53-1.41-.19-.7-1.17-.4-1.82-.34Z"/>
    <path class="cls-1" d="m558.3,210.37c-.15,1.47-.17,2.96-.14,4.44.01.67.3,1.38.94,1.7.81.41,1.15-.39,1.57-.84.55-.59.96-1.42,1.63-1.77,3.27-1.71,3.91-4.81,4.67-7.99,1.11-4.66.67-9.39,1.08-14.15-.6-4.62-.07-9.34-1-14.04-.93-4.73-.65-4.78-5.59-4.61-.4.01-.81.04-1.21,0-1.52-.11-2.28.52-2.18,2.1.17,2.69.36,5.38.45,8.08.33,9.03.7,18.06-.23,27.09Z"/>
    <path class="cls-1" d="m819.99,410.41c11.6.34,23.18-.18,34.74-1.46,5.74-.63,11.45-1.34,17.13-2.39,1.62-.3,2.31-.69,2.32-2.43.02-3.51.4-7.01.39-10.51,0-4.05-.3-8.09-.42-12.13-.04-1.46-.65-1.74-2.06-1.52-3.84.6-7.69,1.09-11.57,1.43-3.21.28-6.46.44-9.61.98-5.25.9-10.48.49-15.73.52-1.35,0-2.62-.57-3.69-1.46-.75-.62-1.33-1.35-1.15-2.43.19-1.15,1.14-1.38,2.03-1.67.25-.08.54-.03.8-.07,7.66-1.38,15.44-1.82,23.12-3.15,5.32-.92,10.47-2.21,15.46-4.19.86-.34,1.67-.86,2.43-1.39.28-.19.52-.67.51-1-.03-.69-.67-.73-1.19-.77-.54-.03-1.1-.07-1.61.05-3.81.87-7.69,1.2-11.54,1.72-8.81,1.18-17.63,2.11-26.52,2.31-1.89.04-3.78.08-5.67.22-9.85.7-19.65.22-29.44-.9-2.4-.27-4.8-.55-7.18-.97-1.28-.23-2,.29-1.98,1.75.05,3.78.02,7.56.02,11.34.13,5.8.2,11.58.98,17.35.52,3.82,2.04,6.61,5.98,7.65.9.24,1.76.6,2.68.82,6.83,1.67,13.81,2.1,20.77,2.3Zm-17.2-32.55c.94.05,1.88.14,2.82.18,3.41.18,3.3.18,3.65,3.37.46,4.15,1.03,8.28.85,12.46,0,2.43-.03,4.86.01,7.28.03,1.44-.79,1.99-2.01,1.9-2.14-.17-4.27-.47-6.4-.78-.71-.1-1.16-.64-1.33-1.35-.06-.26-.05-.54-.06-.8-.2-6.46-.46-12.92-.56-19.38-.04-2.82.32-3.02,3.02-2.87Z"/>
    <path class="cls-1" d="m432.37,198.14c.11,3.51.88,6.9,1.82,10.24.43,1.53,1.19,2.97,2.4,4.14,1.06,1.03,2.19,1.55,3.63.98,1.32-.53,1.04-1.77,1.05-2.79.05-4.04.02-8.07.02-13.35.41-6.17-.56-13.53-.72-20.93-.07-3.41.1-3.38-3.29-3.37-.54,0-1.08-.02-1.61-.01-2.44.05-3.03.37-3.16,2.58-.3,5.23-1.22,10.43-.74,15.69.21,2.27.53,4.54.6,6.82Z"/>
    <path class="cls-1" d="m457.52,192.23c0-4.44,0-8.89,0-13.33,0-4.36.01-4.34-4.15-4.49-.94-.03-1.89-.1-2.79-.31-1.49-.36-1.99.31-1.97,1.66.05,2.7-.5,5.37-.59,8.04-.24,6.99-.19,14-.11,21,.02,1.86.42,3.75.93,5.55.43,1.52.86,3.09,1.9,4.4.62.79,1.33,1.39,2.29,1.5,2.86.33,5.75-2.63,5.04-5.49-.57-2.28-.51-4.53-.54-6.8-.05-3.9-.01-7.81-.01-11.72,0,0,0,0,0,0Z"/>
    <path class="cls-1" d="m413.8,223.43c-3.33-.07-5.9,2.02-6.51,5.39-.21,1.19-.21,2.41-.33,3.83.21,1.53.39,3.27.7,4.98.09.49.51.93.78,1.39.3-.41.81-.78.87-1.22.49-3.69,2.91-6.25,5.1-8.94.51-.63,1.11-1.2,1.5-1.9,1.04-1.88.05-3.5-2.11-3.54Z"/>
    <path class="cls-1" d="m473.5,174.43c-.4.03-.81-.02-1.21,0-8.2.26-6.62-1.63-7.19,6.76-.63,9.41-.26,18.88-.21,28.33.01,2.41.43,4.82.79,7.22.39,2.56,1.95,3.86,4.67,4.13.67.07,1.34.16,2.02.16,2.79-.02,2.96-.15,2.97-2.94.03-6.75,0-13.5,0-20.24,0-6.34,0-12.69,0-19.03,0-.81-.04-1.62,0-2.43.08-1.34-.44-2.04-1.85-1.95Z"/>
    <path class="cls-1" d="m505.36,219.28c.01,2.3.1,2.29,2.31,1.99,1.2-.16,2.4-.35,3.6-.4,4.81-.2,5.1-.46,5.36-5.32.05-.94.05-1.89.05-2.83,0-8.09.02-16.18,0-24.26-.01-3.64,0-7.28-.2-10.91-.2-3.53-.38-3.61-3.79-3.57-1.62.02-3.24.02-4.85.17-2.35.22-2.47.34-2.49,2.68-.04,7.01-.01,14.02-.01,21.03h.02c0,7.14-.03,14.29.02,21.43Z"/>
    <path class="cls-1" d="m482.52,207.02c.03,4.31.11,8.63.11,12.94,0,1.38.53,1.93,1.92,1.83,1.61-.11,3.23-.1,4.85-.11q4.24-.02,4.71-4.06c.16-1.34.5-2.66.53-4,.23-10.38.3-20.76-.19-31.13-.12-2.61.26-5.38-.99-7.88-2.69-.06-5.38-.19-8.06-.17-2.67.01-2.74.07-2.75,2.66-.04,7.01-.01,14.02-.01,21.03h-.13c0,2.97-.02,5.93,0,8.9Z"/>
    <path class="cls-1" d="m874.5,346.45c-.67.06-1.36-.05-2.02.04-5.86.79-11.74,1.3-17.62,1.83-6.97.62-13.94,1.16-20.93,1.36-4.85.14-9.71.03-14.56.03-5.53,0-11.06-.03-16.58,0-6.13.04-5.17-.83-4.88,5.49.14,3.14.47,3.34,3.64,3.47,10.92.46,21.84.07,32.76-.21,4.28-.11,8.6-.45,12.88-.86,6-.57,11.97-1.44,17.95-2.25,3.32-.45,6.67-.85,9.91-1.65,2.95-.73,1.01-3.34,1.43-5.06.34-1.39-.29-2.35-1.96-2.19Z"/>
    <path class="cls-1" d="m734.08,286.94c-2.88-6.65-5.25-13.45-6.81-20.56-1.11-5.09-2.59-10.11-3.94-15.15-.77-2.88-.82-2.91-3.33-1.69-9.62,4.69-14.67,12.27-14.51,23.61-.28,2.92.59,6.18,1.31,9.46,1.72,7.83,5.38,14.87,9.16,21.83,1.99,3.65,4.4,7.07,6.65,10.57.28.43.9,1.11,1.09,1.03.72-.3.37-1.1.43-1.7.05-.54.02-1.08.01-1.62-.12-8.41.43-8.16,6.69-13.04.73-.57,1.67-.87,2.46-1.38,1.34-.86,3.8-.65,4.09-2.02.31-1.47-.85-3.26-1.45-4.89-.56-1.51-1.21-2.98-1.85-4.45Z"/>
    <path class="cls-1" d="m827.02,800.61c-.09-26.38-.18-52.75-.27-79.13.08,0,.16.01.24.02,10.04,27.15,20.05,55.52,29.99,85.29,7.62,1.64,15.24,3.34,22.84,5.09v-138c-7.04-.03-14.08-.07-21.12-.1.04,27.41.08,54.81.12,82.22-.08-.01-.16-.02-.24-.03-9.97-28.74-19.99-56.12-30.06-82.32-7.68-.03-15.37-.06-23.06-.09.18,41.02.36,82.03.54,123.05,7.01,1.29,14.01,2.62,21.01,4Z"/>
    <path class="cls-1" d="m575.04,198.12c0,4.78,0,9.09,0,13.4,0,.35-.07.81.41.87.17.02.46-.26.58-.48,1.69-3.04,3.66-5.9,4.7-9.29,2.64-8.65,3.12-17.42,1.41-26.26-.63-3.28-1.85-6.46-4.71-8.66-1.71-1.32-1.84-1.25-2.51.72-.62,1.83-.68,3.69-.7,5.57-.11,8.21,1.5,16.36.83,24.12Z"/>
    <path class="cls-1" d="m328.78,673.18c-9.3.02-18.59.04-27.89.06-9.55,13.78-19.1,27.99-28.65,42.73.09-14.22.19-28.43.28-42.65-7.48.02-14.97.04-22.45.07-.24,38.1-.47,76.21-.71,114.31,7.47-1.13,14.95-2.21,22.43-3.24.08-11.41.15-22.83.23-34.24,3.08-4.44,6.17-8.84,9.26-13.18,7.62,14.8,15.25,29.21,22.88,43.29,9.31-1.1,18.62-2.11,27.93-3.06-11.84-19.83-23.66-40.26-35.46-61.5,10.72-14.7,21.45-28.86,32.16-42.59Z"/>
    <path class="cls-1" d="m182.18,730.47c6.76-5.55,11.38-14.85,11.43-25.91.12-25.63-16.16-31.21-31.01-30.85-13.44.06-26.88.12-40.32.18v138c13.66-3.14,27.35-6.11,41.05-8.91,18.34-3.86,33.4-15.59,33.53-44.69.06-13.91-5.55-24.71-14.68-27.81Zm-37.49-29.84c5.78-.27,11.57-.53,17.35-.79,4.7-.2,9.15,2.66,9.12,11.95-.03,9.11-5.34,12.59-9.19,12.92-5.78.48-11.55.97-17.33,1.48.01-8.52.03-17.03.04-25.55Zm17.75,75.52c-5.96.97-11.92,1.97-17.88,2.99.02-10.19.03-20.39.05-30.58,5.97-.73,11.94-1.45,17.91-2.14,6.73-.77,12.01,2.39,11.98,13.58-.04,10.48-4.97,14.99-12.06,16.16Z"/>
    <path class="cls-1" d="m210.2,794.08c7.46-1.31,14.92-2.56,22.38-3.77.22-38.96.45-77.92.67-116.88-7.48.02-14.97.05-22.45.08-.2,40.19-.4,80.38-.6,120.57Z"/>
    <path class="cls-1" d="m618.17,602.84c.18-.48.59-.97.18-1.48-.52-.63-1.19-.46-1.83-.15-4.35,2.14-8.52,4.56-12.42,7.47-2.28,1.7-4.49,3.48-6.22,5.75-8.68,11.39-12.21,24.34-11.5,38.53.01.24.03.45.06.66h21.88c-.22-2.05,0-4.13-.27-6.18-1.04-8-.13-15.84,2.41-23.44,2.38-7.12,5.12-14.11,7.7-21.16Z"/>
    <path class="cls-1" d="m599.98,673.06c-5.65,13.35-11.31,26.56-16.98,39.68-5.78-13.35-11.55-26.57-17.3-39.71-8.49,0-16.98-.01-25.48-.02,10.51,20.13,21.04,40.41,31.61,61.03.04,12.07.09,24.15.13,36.22,7.52.32,15.04.69,22.55,1.1-.05-12.21-.11-24.42-.16-36.63,10.4-20.19,20.77-40.68,31.12-61.64-8.49-.01-16.98-.02-25.48-.04Z"/>
    <path class="cls-1" d="m750.61,789.76c27.11,4.53,42.23-20.51,42.07-55.87-.17-35.33-15.64-63.27-42.81-62.91-27.16.28-42.33,25.25-42.12,56.42.21,31.21,15.73,57.95,42.86,62.36Zm-.58-93.24c14.48.38,20.13,18,20.23,35.44.1,17.45-5.34,34.1-19.81,32.25-14.47-1.81-20.13-18.85-20.24-35.31-.11-16.45,5.34-32.76,19.82-32.38Z"/>
    <path class="cls-1" d="m571.07,642.27c2.07-6.1,2.57-12.34,2.35-18.69-.08-2.32-.1-2.29-2.58-2.4-9.45-.41-18.84,1.08-28.28,1-.4,0-.8.09-1.2.15-7.82,1.14-15.58.26-23.32-.86-5.18-.75-10.28-1.83-15.29-3.38-1.75-.54-2.26-.14-2.25,1.65.03,6.59-.48,13.21.8,19.76,1.29,6.62,4.23,11.75,10.22,14.13h49c5.09-2.09,8.64-5.74,10.55-11.35Z"/>
    <path class="cls-1" d="m534.99,673c-24.63-.01-49.26,0-73.89,0-.02,7.19-.03,14.38-.04,21.57,8.58-.05,17.16-.08,25.75-.1-.02,24.78-.04,49.57-.06,74.35,7.52-.06,15.05-.08,22.57-.04-.01-24.77-.02-49.55-.03-74.32,8.58.01,17.16.04,25.75.08-.01-7.18-.03-14.36-.04-21.54Z"/>
    <path class="cls-1" d="m392.49,637.64c.87,5.15,1.3,10.39,1.77,15.6.01.14.03.26.05.39h16.17c-.02-.27-.07-.57-.13-.93-.76-4.22-1.58-8.43-2.25-12.66-.88-5.56-1.32-11.21-2.54-16.69-2.57-11.55-9.78-18.83-21.31-21.7-2.06-.51-2.53-.12-1.93,1.76,1.67,5.23,3.39,10.44,5.17,15.64,2.08,6.09,3.93,12.26,5,18.6Z"/>
    <path class="cls-1" d="m652.66,731.71c12.48,4.81,24.82,7.42,24.88,16.69.05,7.8-6.94,10.12-13.71,9.57-9.56-.78-15.87-5.09-16.43-17.11-7.5-.44-15-.85-22.5-1.22.26,25.61,17.89,37.03,37.74,39.07,19,1.93,37.55-4.43,37.37-31.8-.13-19.46-12.74-27.38-25.21-32.12-12.59-4.78-25.05-6.58-25.1-14.45-.04-6.72,5.99-8.62,10.82-8.54,6.88.12,14.27,3.34,13.97,12.87,7.49.25,14.98.51,22.47.79-.29-24.28-17.62-34.56-34.76-34.48-16.17.06-35.08,8.67-34.96,30.53.1,18.39,13.08,25.36,25.44,30.2Z"/>
    <path class="cls-1" d="m490.88,640.96c1.64-7.04,1.84-14.1,1.55-21.23-.02-.54-.04-1.09-.16-1.61-.18-.78-.77-1.09-1.51-.87-.5.15-.97.44-1.43.71-6.23,3.65-13.14,4.62-20.14,4.78-9.57.22-19.15.25-28.71-.04-5.48-.16-10.95-1.03-16.41-1.75-1.48-.2-3.44-1.63-4.3-.67-.82.91-.37,3.06-.27,4.66.09,1.33.48,2.63.74,3.95,1.79,8.92,6.49,15.9,14.37,20.42,3.1,1.78,6.3,3.22,9.56,4.31h37.05c4.72-1.82,7.88-5.06,9.66-12.66Z"/>
    <path class="cls-1" d="m761.79,547.31c-2.75-1.06-5.6-1.78-8.5-2.31-6.32-1.16-12.73-1.93-18.92-3.72-15.52-4.5-29.15-12.29-40.56-23.82-1.33-1.34-2.63-2.72-4.02-3.99-.72-.66-1.53-2.12-2.48-1.4-1,.75.23,1.96.65,2.83,4.24,8.92,10.56,16.22,18.04,22.53,4.22,3.56,8.62,6.88,13.7,9.2,7.39,3.38,15.18,4.35,24.15,4.09,5.41.46,11.63-.78,17.88-1.68.5-.07,1.16-.05,1.17-.78,0-.65-.62-.76-1.11-.95Z"/>
    <path class="cls-1" d="m890.54,214.34c-5.68-6.04-12.6-10.46-19.82-14.44-9.05-5-18.36-9.36-28.42-11.96-8.11-2.09-16.36-3.45-24.68-3.35-7.23.09-14.5.56-21.65,2.18-15.87,3.59-31.33,8.35-45.61,16.3-8.96,4.99-15.91,11.85-19.23,21.9-1.49,4.49-2.45,9.11-2.79,13.76-.65,8.62.22,17.18,1.93,25.68,1.39,6.91,4.23,13.23,6.95,19.65,6.21,14.69,13.87,28.48,24.32,40.62,3.38,3.93,7.34,7.13,11.85,9.63,9.66,5.37,20.24,6.8,31.07,7.24,4.07.16,8.06-.8,12.11-.78.39,0,.78-.17,1.17-.25-.32-.22-.61-.49-.95-.65-2.78-1.34-5.65-2.46-8.67-3.12-5.1-1.11-10.19-2.3-15.33-3.22-11.54-2.06-20.83-8-28.13-16.85-9.56-11.58-17.02-24.5-22.4-38.54-4.33-11.32-6.72-22.95-4.3-35.11,1.76-8.83,5.74-16.44,12.93-22.12,1.37-1.08,2.78-3.09,4.25-2.81,1.67.32,2.03,2.85,3.07,4.35.53.77.99,1.6,1.5,2.39,3.94,6.02,8.38,11.56,14.54,15.49,7.41,4.72,15.7,7.07,24.27,7.93,7.9.79,15.92.54,23.79-.82,10.65-1.84,20.74-5.27,29.88-11.26,8.44-5.54,16.01-11.8,20.37-21.26,1.76-3.81,1.96-3.77,5.45-1.16,12.81,9.59,18.59,23.03,20.29,38.38.92,8.31-.09,16.68-1.79,24.88-2.95,14.22-7.65,27.88-13.76,41.05-2.03,4.39-4.38,8.63-6.57,12.95-.16.32-.39.87-.25,1.05.57.72.88-.17,1.2-.38,5.29-3.47,9.34-8.13,12.34-13.64,10.35-19,15.3-39.4,15.67-61-.4-4.81-.19-9.64-.98-14.49-1.75-10.82-6.14-20.27-13.61-28.22Z"/>
    <path class="cls-1" d="m866.78,438.97c-.88-2.89-.9-2.96-3.89-1.94-6.82,2.32-13.92,2.88-21.03,3.3-1.47.09-2.93-.1-4.41-.31-3.44-.5-6.93-.71-10.39-1.04-.33-.24-.63-.62-.98-.69-4.76-.85-9.44-1.96-13.82-4.07-1.19-.58-1.35.2-1.44,1.07-.32,3.21-.38,6.47-.99,9.63-1.44,7.51-3.81,14.75-7.04,21.7-3.8,8.17-8.35,15.93-12.99,23.63-7.04,11.69-10.18,24.4-10.49,37.91-.13,5.8.68,11.53,1.48,17.26,1.98,14.17,7.1,26.92,17,37.44,3.76,4,7.7,7.88,12.92,10.06,1.81,2.19,4.44,2.98,6.94,3.88,4.16,1.49,8.52.93,12.81.93,4.99,0,9.47-1.63,13.59-4.37,3.99-2.66,7.14-6.15,9.69-10.15,9.57-14.99,15.63-31.41,19.47-48.68,1.81-8.12,2.66-16.38,3.51-24.67,1.23-12.05.54-23.98-1.28-35.81-1.83-11.91-5.17-23.52-8.66-35.06Z"/>
    <path class="cls-1" d="m649.25,540.44c-.35-.14-.58.33-.57.74-3.66,3.77-7.31,7.56-10.98,11.32-5.77,5.9-12.24,10.9-19.28,15.2-10.36,6.33-21.67,10.05-33.66,11.2-7.87.76-15.79,1.33-23.78.31-5.85-.74-11.72-1.28-17.48-2.59-9.97-2.27-19.62-5.47-28.38-10.87-3.65-2.25-6.94-5.09-10.65-7.21-8.1-4.61-5.67-5.76-14.81.15-4.96,3.21-9.72,6.72-15.08,9.26-1.65.56-3.32,1.05-4.94,1.69-9.33,3.71-19.14,5.51-29.04,5.97-9.94.47-19.93.83-29.9-.51-6-.81-11.94-1.72-17.75-3.4-13.01-3.78-23.93-10.74-32.69-21.17-2.04-2.43-3.85-5.12-6.42-7.09-.22.91.07,1.74.39,2.6,2.85,7.59,6.4,14.84,11.22,21.35,5.66,7.67,12.19,14.43,21.58,17.56,6.26,2.08,10.87,6.2,14.8,11.35,1.95,2.56,3.83,5.24,6.31,7.36,9.56,8.17,20.75,12.13,33.22,12.63,3.89.15,7.76-.13,11.66-.68,11.17-1.56,20.81-6.17,29.01-13.77,6.25-5.8,10.22-13.07,12.63-21.2.48-1.54.9-3.08.89-4.73-.01-2.58.72-5.03,1.56-7.43.13-.37.35-.71.52-1.06.13.32.34.64.37.98.59,5.34,1.94,10.54,3.47,15.65,1.46,4.88,3.41,9.62,6.79,13.59,3.21,5.13,7.6,9,12.82,11.98,9.48,5.41,20,6.68,30.61,7.45,5.25.38,10.49-.09,15.68-.87,3.3-.5,6.54-1.33,9.59-2.88,4.63-2.34,8.47-5.68,12.23-9.15,2.17-2.01,4.15-4.2,6.51-6.05,5.74-4.48,12.01-8.17,17.88-12.44,4.12-3,8.47-5.72,11.76-9.73,4.52-3.03,7.75-7.34,11.13-11.45,5.63-6.86,9.61-14.69,12.98-22.85.34-.48.31-1.02-.2-1.22Z"/>
    <path class="cls-1" d="m779.88,474.79c-4.18-3.59-8.18-7.39-12.51-10.79-5.91-4.64-12.38-8.34-19.61-10.71-10.43-3.41-21.08-3.56-31.84-2.75-.2-1.81,1.27-2.2,2.45-2.74,4.06-1.86,8.46-2.41,12.78-3.33,2.91-.62,5.89-.57,8.79-1.09,1.96-.35,2.26-.87,1.86-2.77-.94-4.45-2.01-8.85-3.76-13.08-7.39-17.84-19.71-30.9-37.49-38.53-7.03-3.02-14.47-4.59-22.13-5.51-7.35-.88-14.46-.46-21.57,1.32-1.05.23-2.12.37-3.13.69-6.52,2.07-12.42,5.06-16.43,10.93-1.83,2.68-3.28,5.53-4.5,8.52-.18.43-.16,1.06-.81,1.11-.05,0-.2-.73-.22-1.12-.27-6.78.8-13.39,2.55-19.9.61-2.28.66-2.34-1.22-2.83-3.53-.91-6.81-2.4-10.04-4.02-10.78-5.41-21.7-10.52-32.85-15.13-7.8-3.23-15.6-6.4-23.74-8.72-1.4-.4-1.95-.38-1.96,1.19-.03,4.45-.93,8.8-1.52,13.18-1.3,9.6-3.83,18.86-7.32,27.88-.34.87-.67,1.76-.86,2.66-.17.78.22,1.31,1.11,1.18,6.12-.88,12.3-1.04,18.43-1.96,11.27-1.7,22.4-3.93,33.32-7.16.98-.29,1.95-.62,2.98-.27-6.54,6.67-14.87,10.35-23.31,13.77-10.06,4.08-20.55,6.85-31.02,9.67-14.1,3.79-28.11,7.87-41.49,13.8-3.67,1.63-7.22,3.53-10.85,5.27-1.19.57-1.74,1.3-1.93,2.73-.99,7.41-.69,14.79.05,22.19.12,1.24.39,1.76,1.7.94,4.22-2.66,8.12-5.75,12.06-8.8,8.47-6.56,17.75-11.57,28.02-14.67.22.27.44.54.66.82-8.14,4.98-16.1,10.16-23.09,16.79-7.19,6.81-13.25,14.44-18.3,22.92-.62,1.03-1.08,2.09-1.07,3.39.07,11.31-.4,22.65,1.01,33.9.29,2.3.05,4.83,1.41,6.95.12,9.16,3.02,17.15,10.04,23.31,3.36,2.95,7.28,5.05,11.44,6.64,5.52,2.11,11.13,3.71,17.09,4.28,6.69.65,13.35,1.7,20.1,1.33,3.22-.18,6.42-.94,9.66-.7,3.68.27,7.3-.38,10.83-1.07,13.72-2.68,26.39-7.97,37.87-16.03,7.66-5.38,14.46-11.73,20.24-19.04,9.15-11.57,14.56-24.97,18.11-39.16,1.45-5.8,1.83-11.81.78-17.65-2.45-13.6-10.1-24.06-20.82-32.47-5.41-4.75-11.75-7.93-18.3-10.73-1-.43-2.18-.45-2.94-1.4,1.18-.45,2.4-.17,3.6-.2.13,0,.27.04.4.06,7.13,1.37,14.06,3.4,20.56,6.65,11.12,5.54,20.16,13.32,25.79,24.62,3.2,6.43,4.79,13.34,5.71,20.41.18,1.36.36,1.64,1.53.65,9.03-7.63,20.04-10.43,31.26-12.69.33-.07.72.19,1.08.29-.26.3-.46.68-.78.89-3.45,2.29-7.14,4.22-10.34,6.89-5.6,3.84-10.26,8.7-14.85,13.64-1.91,2.05-2.47,4.08-1.72,6.95,2.93,11.23,9.02,20.24,18.01,27.5,9.96,8.04,21.44,12.3,33.98,13.38,9.93.85,19.93.36,29.8-1.48,2.44-.46,2.73-.57,2.83-3.03.19-4.59,1.26-9.02,2.21-13.48,1.6-7.52,4.6-14.55,7.54-21.6,2.2-3.06,3.43-6.63,5.29-9.88.66-1.15.36-1.97-.6-2.8Z"/>
    <path class="cls-1" d="m363.19,732.43c14.11-.69,28.23-1.28,42.35-1.76.03-6.62.06-13.23.09-19.85-14.11.32-28.21.71-42.32,1.17.04-5.91.07-11.83.11-17.74,15.42-.29,30.85-.53,46.28-.72.03-6.83.06-13.66.09-20.5-22.9.03-45.8.06-68.7.11-.22,34.43-.44,68.87-.66,103.3,23.36-2.24,46.74-3.99,70.14-5.25.03-7.33.06-14.66.1-22-15.87.67-31.73,1.51-47.58,2.53.04-6.43.08-12.87.11-19.3Z"/>
    <path class="cls-1" d="m725.15,558.47c-4.43-1.9-8.83-3.89-13.58-4.92-.27-.26-.64-.48-.9-.17-.33.39.1.54.4.67.2.34.36.73.62,1.02,8.14,9.14,18.65,12.2,30.49,11.82.31-.01.62-.25.92-.38-.34-.2-.66-.43-1.01-.58-5.64-2.49-11.27-5.01-16.94-7.45Z"/>
    <path class="cls-1" d="m140.91,355.59c10.76,2.18,21.68,1.91,32.58,2.97,3.43-.25,6.91-.66,10.41-.71,6.08-.08,12.01-1.12,17.89-2.49,1.03-.24,2.09-.61,2.95-1.2,1.07-.73,2.35-1.66,1.85-3.2-.47-1.43-1.95-1.19-3.14-1.24-.81-.03-1.62-.01-2.43-.01-6.6,0-13.19.24-19.79.49-9.69.37-19.37-.6-29.02-1.46-5.32-.48-10.67-1.03-15.96-2.05-4.07-.79-8.15-1.53-12.22-2.32-1.63-.32-1.94-.07-1.81,1.56.11,1.48.41,2.94.43,4.42.02,1.7.87,2.32,2.43,2.6,5.27.93,10.61,1.59,15.83,2.64Z"/>
    <path class="cls-1" d="m353.28,543.24c.15.02.29.04.44.06-.08-.15-.16-.31-.24-.46-.06.13-.13.27-.19.4Z"/>
    <path class="cls-1" d="m207.49,367.41c-3.26.03-6.4.8-9.58,1.31-3.56.58-7.06,1.64-10.63,2-8.2.82-16.45.46-24.63-.09-4.67-.32-9.39-.66-14.07-1.14-4.25-.43-8.51-1.44-12.84-.95-2.94-1.93-6.26-1.87-9.57-1.8-.64.01-1.43-.1-1.67.73-.23.78.32,1.28.93,1.59,2.75,1.41,5.51,2.81,8.77,2.36,2.21,1.05,4.56,1.49,6.97,1.81,3.19.42,6.39.73,9.59,1.05,4.66.47,9.31,1.13,14,1.41,2.81.17,5.61.54,8.39,1,.94.16,2.23.21,2.47,1.64.46,2.71-.83,4.22-3.52,4.68-7.27,1.24-14.51.09-21.73-.26-3.18-.16-6.42-.43-9.61-.87-4.62-.65-9.25-1.3-13.87-1.95-.51-.11-.73.07-.59.6-.31,7.84-.26,15.67-.03,23.51-.12.53.15.75.63.78,2.32,1.51,5.1,1.45,7.65,2.09,7.81,1.95,15.7,3.64,23.82,3.6,8.76-.05,17.51.19,26.28-.67,6.88-.67,13.48-2.15,20-4.24,2.87-.92,4.18-2.56,4.19-5.89.02-5.5.8-10.99,1.22-16.49.36-4.71.5-9.41-.43-14.11-.28-1.4-.83-1.67-2.13-1.65Zm-7.48,29.57c-.81,3.8-2.67,5.78-6.54,6.47-5.24.94-5.31,1.14-4.97-3.98.27-4.02,1.1-8.01.78-11.33,0-3.03.03-5.33-.01-7.62-.02-1.22.53-1.65,1.7-1.64,2.83.03,5.66-.09,8.42.74.72.21,1.29.46,1.26,1.27-.21,5.36.5,10.73-.64,16.09Z"/>
    <path class="cls-1" d="m261.54,298.65c2.39.29,4.8.52,7.17.97,3.24.61,6.13,1.87,7.9,4.93.67,1.16,1.53,2.21,2.3,3.31,1.77,2.51,2.38,2.53,4.31.09.33-.42.59-.9.85-1.37,6.73-12.26,11.19-25.17,11.37-39.32,0-1.89,0-3.78,0-5.67,0-.82-.06-1.58-.72-2.22-4.81-4.74-9.72-9.27-16.4-11.34-1.49-.46-2.27-.49-2.51,1.22-.09.66-.45,1.27-.56,1.93-.85,5.01-1.97,9.96-3.19,14.9-2.65,10.7-6,21.1-11.56,30.7-.9,1.56-.79,1.64,1.04,1.86Z"/>
    <path class="cls-1" d="m438.12,285.02c4.36,4.78,8.75,9.54,13.26,14.18,1.18,1.22,1.37,2.44,1.37,3.98.03,6.73-.31,13.44.61,20.18,1.48,10.87,5.29,20.42,13.46,28.03,3.94,3.67,8.5,5.45,13.82,5.62,11.6.38,23.2.24,34.81,0,5.63-.11,10.46-2.09,14.68-5.74,10.36-8.98,15.39-20.44,15.69-34.04.11-4.72.17-9.45,0-14.17-.1-2.64.67-4.59,2.54-6.44,7.02-6.91,13.03-14.7,19.08-22.45.9-1.15,1.87-2.25,1.95-3.88.3-6.33,1.15-12.65.58-18.98-.51-5.66-.55-11.31-.6-16.98-.03-3.31-.31-3.58-3.71-3.75-.67-.03-1.35,0-2.02-.01-11.33-.08-22.57,1.05-33.82,2.23-7.34.77-14.71,1.21-21.97,2.65-6.24,1.24-6.6,1.1-8.15,8.05-.12.52-.83,3.8-2.52-5.23-.22-1.21-.76-1.9-2.07-2.03-4.94-.51-9.88-1.04-14.81-1.64-3.19-.39-6.37-.88-9.56-1.34-4.25-.62-8.49-1.26-12.73-1.87-5.3-.76-10.61-1.42-15.74-3.13-2.65-.89-5.36-1.63-8.16-2.09-1.26-.21-1.74.19-2.18,1.07-1.49,3-2.64,6.15-3.56,9.37-1.67,5.84-2.31,11.81-2.72,17.86-.45,6.51.34,12.87,1.27,19.25.22,1.51,1.19,2.67,2.5,3.53,3.29,2.16,6.07,4.87,8.71,7.77Zm86.94,48.6c-2.57,1.21-5.29,1.89-8.09,2.3-6.57.97-13.18.84-19.79.81-3.78,0-7.57.14-11.34-.04-3.2-.15-6.46-.4-9.31-2.17-1.33-.82-1.38-1.49-.09-2.38,2.83-1.94,6.06-2.91,9.38-3.43,1.85-.29,3.73-.49,5.59-.74,3.33-.46,6.74-.88,10.07-.66,5.87.4,11.81.57,17.42,2.76,1.99.78,4.09,1.26,6.11,1.97.44.16.75.69,1.12,1.05-.36.17-.71.35-1.07.52Zm12.68-6.8c-.17,1.1-.79,1.38-1.64.72-.21-.16-.42-.35-.58-.57-2.62-3.58-6.43-4.34-10.54-4.98-3.23-.5-6.42-.65-9.65-.66-12.41-.02-24.82.01-37.23-.02-3.13,0-6.12.58-9.1,1.5-3.05.94-5.84,2-6.81,5.48-.09.32-.52.74-.83.77-.87.09-.57-.71-.58-1.11-.06-1.75.12-3.52-.06-5.26-.19-1.81.92-2.4,2.25-2.7,3.14-.7,6.29-1.39,9.47-1.84,10.01-1.4,20.07-2.16,28.25-1.75,9.49,0,17.05-.11,24.55.94,2.51.35,5.06.55,7.5,1.42,3.8,1.35,5.62,4.17,5,8.04Zm-51.78-32.99c5.06,2.06,10.25,2.85,15.74,1.97,4.76-.76,9.5-1.55,14.15-2.84.15-.31.3-.63.45-.94-.13-.79-.36-1.58-.39-2.38-.15-5.01-.03-4.29,4.36-2.75,1.72.61,3.34,1.72,4.22,3.55.58,1.2,1.38,2.29,1.92,3.5,2.67,5.99,2.66,6.02-3.58,7.13-4.77.85-9.34,2.34-13.67,4.46-5.63,2.75-11.29,2.96-17.11.81-3.13-1.15-6.27-2.28-9.42-3.37-2.9-1.01-5.75-2.13-8.92-2.16-2.14-.02-2.5-.7-2.47-2.78.02-1.13.46-2.09.89-3.07,1.02-2.36,2.57-4.41,4.14-6.4,1.56-1.99,3.86-2.21,6.22-2,.63.06.93.48.96,1.07.03.53.04,1.08-.02,1.61-.4,3.32-.43,3.39,2.54,4.6Zm-44.8-55.2c3.09-2.33,6.41-3.71,10.51-2.83,5.34,1.14,10.09,3.58,14.72,6.26,5.83,3.38,11.9,6.06,18.52,7.47,7.71,1.64,15.42,1.74,23.22.73,3.88-.5,7.62-1.34,11.38-2.34,4.46-1.19,8.54-3.16,12.51-5.4,3.27-1.84,6.55-3.66,10.03-5.08,6.08-2.48,12-2.45,17.64,1.31,1.52,1.01,2.59,2.34,3.19,4.03.57,1.61.06,2.63-1.62,2.99-1.72.37-3.49.22-5.22.11-4.8-.29-9.09.88-12.51,4.43-.27.28-.42.67-.62,1.01.36.13.7.33,1.07.39,2.79.44,5.66-.21,8.43.66,2.28.72,3.83,2.34,3.98,4.48.04.51,0,1.19-.31,1.52-.42.46-.94-.14-1.33-.37-1.52-.9-3.13-1.57-4.83-1.99-2.87-.71-4.43,0-5.8,2.78-1.18,2.39-3.07,4.08-5.13,5.6-.85.63-1.83,1.04-2.98,1.1-5.75.3-11.26-.23-16.09-3.87-2.03-1.53-2.17-1.43-3.57.72-1.11,1.71-2.33,3.3-3.9,4.6-1.19.98-1.58.81-2.31-.63-.9-1.77-.72-3.66-.83-5.54-.14-2.52-.17-2.62-2.48-2.64-4.72-.04-9.44.02-14.17.06-.67,0-1.34.1-1.99.25-1.01.23-1.62.75-1.59,1.94.06,2.16,0,4.32-.05,6.48-.02.72-.49.95-1.01.43-1.52-1.52-2.99-3.08-4.23-4.86-1.65-2.37-2.18-2.49-4.45-.6-5.15,4.32-11.14,4.06-17.23,3.48-1.46-.14-2.34-1.19-3.2-2.27-1.09-1.37-2.35-2.61-3.35-4.04-2.2-3.16-6.29-2.99-9.06-1.63-.36.18-.67.48-1.04.61-1.05.36-1.91-.43-1.65-1.54.58-2.43,2.05-4.18,4.48-4.69,1.69-.36,3.32-1.18,5.13-.96.52.06,1.08-.03,1.61-.14.67-.14,1.36-.43,1.52-1.15.18-.82-.51-1.16-1.12-1.43-1.59-.72-3.2-1.3-5.01-1.33-3.1-.06-6.19-.27-9.29-.44-2.11-.12-2.26-.35-2.37-2.37-.12-2.2.66-4.04,2.35-5.32Z"/>
    <path class="cls-1" d="m194.62,425.87c-1.35-.03-2.71.01-4.04.19-5.32.71-10.62,1.57-15.95,2.21-8.04.96-16.14.96-24.22.94-1.91,0-3.75-.29-5.59-.73-4.55-.95-9.13-1.72-13.8-1.7-.38,0-.76.16-1.15.24.29.26.55.57.87.77,3.58,2.15,7.49,3.24,11.62,3.66.67.04,1.37,0,2.02.15,4.87,1.15,9.79,1.71,14.8,1.58,5.11-.13,10.2.02,15.32-.71,6.93-.98,13.7-2.43,20.28-4.81.89-.32,2.34-.6,2.21-1.4-.19-1.12-1.54-.37-2.37-.39Z"/>
    <path class="cls-1" d="m206.17,486.14c-2.46-4.01-4.81-8.08-7.18-12.14-5.9-10.1-8.15-21.19-8.86-32.7-.07-1.21-.05-2.43-.11-3.64-.05-1.07-.74-1.38-1.66-1.16-.91.22-1.78.59-2.67.87-4.72,1.51-9.4,3.14-14.16,4.51-4.99,1.44-10.16,1.17-15.26.96-4.81-.2-9.32-1.37-14.13-2.7-8.27-2.28-9.56-1.11-10.64,1.01-.54,1.07-.99,2.2-1.41,3.33-1.61,4.41-2.62,8.99-3.63,13.57-2,9.05-3.82,18.16-4.3,27.42-.62,11.99.04,23.92,2.13,35.81,1.63,9.28,4.02,18.3,7.02,27.2,3.8,11.27,9.33,21.71,15.4,31.87,2.98,4.99,6.57,9.58,10.9,13.48,9.51,8.56,16.95,9.3,28.7,2.92,6.01-3.26,10.79-8.07,14.48-13.83,10.56-16.51,16.53-34.48,16.89-54.16.51-4.78-.18-9.5-1.04-14.1-1.88-10.06-5.08-19.71-10.48-28.52Z"/>
    <path class="cls-1" d="m373.37,539.06c15.26,11.56,32.65,17.22,51.6,18.02,7.51.32,15.05.35,22.59-.62,9.95-1.27,19.49-3.58,28.29-8.48,5.86-3.27,10.74-7.6,13.78-13.73,2.25-4.53,2.9-9.44,3.32-14.39.91-5.02,1.83-10.05,1.84-15.18.01-6.48-.35-12.99.14-19.43.47-6.17-1.35-11.13-5.12-15.9-6.44-8.15-12.84-16.3-20.98-22.88-1.67-1.35-3.32-2.73-4.95-4.14-.2-.17-.81-.43-.25-.86.18-.13.53-.16.75-.09.5.18.97.45,1.46.69,9.07,4.44,17.7,9.59,25.7,15.77.43.33.83.69,1.29.97.63.39,1.03.09,1.1-.56.76-7.38,1.17-14.75.31-22.19-.26-2.25-1.12-3.34-2.97-4.22-6.91-3.25-13.97-6.1-21.16-8.7-12.5-4.52-25.24-8.04-38.36-10.19-7.93-1.3-15.81-2.75-23.39-5.59-7.42-2.78-13.87-6.98-19.51-12.47-1.22-1.18-3.14-2.81-2.25-4.21.78-1.22,3.18-.46,4.91-.07,5.24,1.18,10.28,3,15.33,4.75,5.74,1.98,11.62,3.02,17.6,3.91,4.14.61,8.31.71,12.45,1.19,4.12.48,8.27,1.12,12.46,1.1.96,0,1.59-.14.78-1.3-3.3-4.74-6.35-9.64-9.15-14.7-2.89-5.24-4.68-10.87-5.26-16.75-.46-4.68-1.22-9.35-.97-14.1.15-2.79-.11-2.88-2.63-1.98-3.78,1.36-7.55,2.74-11.27,4.25-18.31,7.38-35.96,16.1-53.06,25.95-3.68,2.12-3.6,2.15-1.7,5.85,2.38,4.64,5.04,9.16,6.5,14.22.41.07.67.4.37.66-.39.34-.47-.15-.57-.44-2.68-2.01-5.34-4.03-8.03-6.02-11.03-8.16-23.13-13.17-37.09-13.64-10.87-.36-20.98,1.9-30.72,6.54-10.52,5.02-19.37,12.09-26.12,21.57-4.52,6.35-7.56,13.53-9.93,20.97-.65,2.05-1.32,4.09-1.52,6.22-.24,2.6.22,3.09,2.75,3.38,1.2.14,2.41.21,3.62.32,4.89.69,9.8,1.22,14.53,2.77,2.85.93,5.45,2.29,7.79,4.1.7.54,1.95,1.1,1.24,2.47-1.26.3-2.33-.27-3.46-.67-4.45-1.57-9.08-2.32-13.75-2.59-8.08-.47-15.61,1.76-22.78,5.29-9.53,4.69-18.43,10.37-26.57,17.2-1.91,1.6-4.04,3.16-4.9,5.73-1.36,1.24-.55,2.44.11,3.59,1.88,3.26,3.76,6.52,5.71,9.73,4.39,7.23,8.8,14.45,10.98,22.74.95,3.62,1.94,7.23,2.78,10.88.96,4.19,1.04,4.35,5.38,4.93,6.41.86,12.86,1.17,19.33.92,9.04-.35,17.42-2.87,25-7.84,4.15-2.72,8.17-5.66,12.3-8.41,1.6-1.07,3.11-2.46,5.25-2.39.05,1.44-.91,2.45-1.6,3.55-3.94,6.27-9.41,11.11-15.16,15.59-12.22,9.52-26.46,13.33-41.69,14.04-.94.04-1.89.05-2.83.11-.84.05-1.11.61-1.1,1.37.08,4.02,3.45,7.27,7.54,7.45,2.47.11,4.8-.64,7.22-.87,5.76-.57,11.38-1.9,16.68-4.27,10.7-4.79,19.96-11.47,27.82-20.3,8.27-9.29,13.47-20.02,16.59-31.86.92-3.47,1.45-7.15.2-10.74-.98-2.81-2.32-5.45-4.1-7.83-5.15-6.89-11.75-12.15-19.02-16.62-.02-.23-.05-.46-.09-.7.49-.48.94-.7,1.75-.52,7.57,1.7,14.94,4.09,22.39,6.2,4.38,1.24,4.39,1.29,5.68-3.03,4.36-14.58,13.94-24.54,27.49-30.9,3.26-1.53,6.72-2.77,10.46-2.53-.23,1.21-1.29,1.61-2.14,2.2-3.38,2.34-6.79,4.63-9.75,7.52-2.77,1.75-5.01,4.12-7.05,6.59-4.28,5.17-7.05,11.12-7.63,17.86-.54,6.35.54,12.55,2.17,18.7,2.81,10.58,7.3,20.45,12.56,29.96,5.78,10.45,13.02,19.78,22.64,27.06Z"/>
    <path class="cls-1" d="m123.47,330.65c.48-.74-.42-1.48-.72-2.19-.51-1.23-1.19-2.4-1.82-3.58-4.81-9-9.26-18.17-12.31-27.93-3.12-9.99-5.18-20.18-6.28-30.65-.99-9.4-.55-18.59,1.95-27.59,3.38-12.15,10.89-21.13,22.32-26.65,2.56-1.24,2.64-1.18,3.82,1.39,2.79,6.04,6.48,11.41,11.17,16.18,11.72,11.92,26.39,17.19,42.58,18.63,5.99.53,12.07.37,18.14-.56,8.6-1.32,16.76-3.66,24.15-8.29,3.65-2.29,6.89-5.07,9.41-8.7,3.4-4.9,6.18-10.04,7.69-15.82.34-1.32.9-1.53,1.92-.59,8.22,7.52,13.77,16.66,14.93,27.79,1,9.51.64,19.13-1.67,28.52-5.59,22.67-18.15,40.87-36.37,55.17-5.4,4.24-11.55,7.22-18.68,7.94-4.1.41-8.26.96-12.26,2.2-3.28,1.02-6.17,2.62-8.51,5.17-.26.29-.41.68-.62,1.02.37.1.74.24,1.12.28,2.46.3,4.79-.78,7.22-.75,4.87.05,9.61-.84,14.38-1.65,15.14-2.56,27.32-10.15,37.07-21.82,9.9-11.86,17.46-25.08,22.75-39.61,2.95-8.09,5.14-16.39,6.09-24.92.62-5.59.82-11.25.24-16.94-.9-8.72-3.97-16.38-9.92-22.81-7.53-8.15-16.79-13.82-26.91-18.09-16.81-7.1-34.48-9.91-51.83-10.03-9.03.1-17.19.48-25.22,2.52-12.06,3.07-23.2,8.18-33.81,14.58-6.64,4.01-12.71,8.8-17.22,15.09-8.69,12.1-12.37,25.79-11.71,40.65.09,2.01.59,4.01.64,6.03.18,6.89,1.55,13.6,2.97,20.29,2.47,11.73,6.81,22.83,11.87,33.65,1.25,2.67,2.66,5.28,4.46,7.63,1.66,2.16,3.6,4.06,6.34,4.77.85.22,2.02.61,2.62-.32Z"/>
    <path class="cls-1" d="m290.36,552.43c-3.08,1.32-6.05,2.88-9.12,4.22-7.87,3.46-15.92,6.35-24.59,7.06-1.18.1-2.36.52-3.49.92-.58.21-1.33.52-1.25,1.35.06.61.66.76,1.15.99,1.79.85,3.7.56,6.2.63,5.18-.08,10.9-.65,16.21-3.25,2.17-1.06,4.37-2.09,6.41-3.36,3.32-2.05,6.67-4.08,9.5-6.8.64-.61,1.92-1.28,1.39-2.18-.69-1.18-1.69.1-2.42.42Z"/>
  </g>
  <g>
    <path class="cls-2" d="m156.49,441.29c-8.1,2.03-19.17-9-25-.13-9.43,25.37-11.92,53.4-7.21,80.13,5.39,25.87,25.2,95.61,62.03,75.47,21.95-14.27,30.09-43.02,31.37-68,3.11-32.74-27.82-55.4-27.56-87.46,2.42-12.12-18.39,5.91-33.63,0Z"/>
    <path class="cls-2" d="m866.78,438.97c-.88-2.89-.9-2.96-3.89-1.95-11.65,3.96-23.84,3.49-35.84,1.95,6.19,36-20.08,66.73-16.85,102.15.21,13.04,8.15,25.85,7.23,38.55-2.71,4.51-5.5,8.48-6.72,13.26,46.72,24.82,63.06-49.79,66.01-83.08,2.52-24.17-2.75-47.96-9.94-70.87Z"/>
    <path class="cls-2" d="m251.76,461.83c-50.2,27.97-35.33,2.57-17.48,51.11,3.82,21.77,7.76,15.43,27.49,16.73,16.99.89,28.55-12.46,42.63-18.64-.72,4.61-10.69,14.75-16.84,19.13-12.79,11.82-31.3,11.63-45.62,15.53,6.11,20.96,51.49-6.49,59.27-17.99,10.37-13.4,24.58-34.33,12.69-50.44-13.32-19.54-40.77-22.98-62.15-15.43Z"/>
    <path class="cls-2" d="m639.83,430.14c8.09,28.01,1.29,58.78-22.83,77.21-32.56,23.56-75.34,24.25-112.51,13.35.02,34.11,42.59,37.19,68.33,34.85,57.03,1.05,122.35-81.76,67-125.42Z"/>
    <path class="cls-2" d="m373.38,539.06c27.8,25.33,121.41,29.29,117.97-19.05-48.58,15.08-118.71,8.68-137.95-48.01-7.4-7.82,5.29-46.29-9.77-26.53-21.07,28.27,6.8,74.05,29.75,93.58Z"/>
    <path class="cls-2" d="m769.29,485.16c-19.53-13.81-43.01-24.23-67.11-17.19-2.02.29-4.15.34-4.78-2.38-25.53,16.04-17.36,30.39,1.43,48.09,17.81,14.77,41.93,15.78,63.78,11.9,5.13-.73,2.67-12.16,5.04-16.51-.11-9.07,13.09-20.97,1.64-23.91Z"/>
    <path class="cls-2" d="m715.92,450.55c4.24-6.83,16.64-5.38,24.02-7.16,1.96-.35,2.26-.87,1.86-2.77-5.46-31-32.09-54.66-63.38-57.12-40.56-1.29-11.87,5.54-.44,21.58,30.75,43.53-48.42,53.65,37.94,45.46Z"/>
    <path class="cls-2" d="m475.13,587.63c-14.31,6.54-32,6.84-46.94,2.46,14.93-4.99,37.88-7.02,46.37-22.13-40.17,14.71-93.77,12.82-120.79-24.54,0,0,.08-.09.08-.09-.04,0-.07,0-.11,0,.01.03.02.06.03.09,4.52,16.54,15.98,35.1,33.24,41.55,6.26,2.08,10.87,6.2,14.79,11.35,22.81,32.78,82.82,23.8,92.83-15.66-6.8-3.83-13.12,4.79-19.51,6.97Z"/>
    <path class="cls-2" d="m362.57,429.17c9.38-.47,33.1-11.33,8.68-7.45-8.44.53-88.85,32.82-87.13,18.32,6.56-19.87,25.94-32.79,43.05-43.16,2.28-1.67,1.89-3.23-.77-4.29-29.85-9.54-56.63,23.14-61.04,49.98,7.43,1.46,20.71,1.7,23.53,9.29,1.15-.92,1.45.45,2.13.8,3.63,1.4,1.8,5.3,3.77,7.29,6.39-3.17,28.76,12.74,29.82,2.65,5.25-17.1,19.83-31.69,37.95-33.43Z"/>
    <path class="cls-2" d="m550.73,588.78c-7.71.14-14.75,3.39-22.39,3.75-6.22,2.45-15.27.44-20.08,5.12,14.44,20.75,46.45,23.45,68.7,15.68,7.37-3.66,12.6-9.95,18.74-15.2,4.8-5.16,31.6-18.4,28.09-22.72-23.86,4.52-49.14,8.55-73.05,13.37Z"/>
    <path class="cls-2" d="m570.84,621.17c-22.8,0-45.94,4.55-68.1-3.09-4.98-.26-1.53,17.15-1.44,21.41,1.98,17.62,22.01,16.92,35.66,16.55,23.39,2.92,39.02-7.46,36.46-32.47-.08-2.32-.1-2.29-2.58-2.4Z"/>
    <path class="cls-2" d="m424.07,620.96c-4.3-2.01-5.36-.38-4.56,3.98,1.26,21.1,23.76,32.55,42.7,31.08,26.65,2.93,32.33-14.32,30.07-37.9-20.15,6.08-45.8,6.17-68.2,2.84Z"/>
    <path class="cls-2" d="m616.52,601.22c-20.79,8.32-31.73,29.98-30.14,51.75.24,5.8,16.86,2.46,21.83,3.83-2.2-18.53,2.2-36.7,9.96-53.95.97-1.28-.41-2.44-1.65-1.63Z"/>
    <path class="cls-2" d="m405.57,623.34c-2.57-11.55-9.78-18.83-21.31-21.7-2.06-.51-2.53-.12-1.93,1.76,3.46,11.38,8.17,22.47,10.17,34.24,2.48,7.86-2.42,20.52,10.04,17.71,2.49-.54,9.09,1.8,7.83-2.66-2.07-9.7-2.94-19.64-4.79-29.35Z"/>
    <path class="cls-2" d="m693.8,517.46c-1.48-1.87-9.25-9.54-5.86-2.56,10.74,20.74,31.2,37.72,55.89,35.82,55.79-3.01-29.69-4.05-50.04-33.26Z"/>
    <path class="cls-2" d="m197,426.26c-16.4-.72-35.03,5.62-52.18,2.21-9.94,8.95,48.25,3.8,52.18-2.21Z"/>
    <path class="cls-2" d="m259.26,567.6c11.63.15,26.73-6.25,33.51-15.59-11.19,3.06-23.19,11.44-36.12,11.7-8.74,1.36-3.34,4.67,2.61,3.89Z"/>
    <path class="cls-2" d="m867.96,427.57c-15.73.47-32.8,2.87-48.93.03,6.55,9.23,40.37,5.83,48.93-.03Z"/>
    <path class="cls-2" d="m353.75,543.32c-.27-.79-.74-.01,0,0h0Z"/>
  </g>
  <path class="cls-3" d="m192.81,866.35c3.68-1.78,5.77-4.7,5.77-8.86,0-7.91-5.47-10.52-13.55-10.52h-19.97v42.44h20.57c7.67,0,14.98-3.69,14.98-12.3,0-5.29-2.62-9.27-7.79-10.76Zm-18.43-12.13h8.74c3.33,0,6.42.83,6.42,4.87,0,3.57-2.44,5.05-5.71,5.05h-9.45v-9.93Zm9.99,27.94h-9.99v-11.65h10.16c3.98,0,6.72,1.72,6.72,6.06s-3.21,5.59-6.9,5.59Z"/>
  <rect class="cls-3" x="209.71" y="846.97" width="9.33" height="42.44"/>
  <polygon class="cls-3" points="267.58 846.97 255.93 846.97 239.34 864.57 239.34 846.97 230.01 846.97 230.01 889.41 239.34 889.41 239.34 875.74 244.69 870.33 257.47 889.41 269.18 889.41 250.99 863.73 267.58 846.97"/>
  <polygon class="cls-3" points="285.22 871.16 305.79 871.16 305.79 863.91 285.22 863.91 285.22 854.82 307.63 854.82 307.63 846.97 275.89 846.97 275.89 889.41 308.11 889.41 308.11 881.57 285.22 881.57 285.22 871.16"/>
  <polygon class="cls-3" points="334.74 854.82 347.46 854.82 347.46 889.41 356.79 889.41 356.79 854.82 369.51 854.82 369.51 846.97 334.74 846.97 334.74 854.82"/>
  <polygon class="cls-3" points="403.21 863.26 386.03 863.26 386.03 846.97 376.7 846.97 376.7 889.41 386.03 889.41 386.03 871.11 403.21 871.11 403.21 889.41 412.54 889.41 412.54 846.97 403.21 846.97 403.21 863.26"/>
  <polygon class="cls-3" points="432.94 871.16 453.51 871.16 453.51 863.91 432.94 863.91 432.94 854.82 455.35 854.82 455.35 846.97 423.61 846.97 423.61 889.41 455.82 889.41 455.82 881.57 432.94 881.57 432.94 871.16"/>
  <polygon class="cls-3" points="465.3 889.41 474.63 889.41 474.63 871.88 492.4 871.88 492.4 864.63 474.63 864.63 474.63 854.82 495.14 854.82 495.14 846.97 465.3 846.97 465.3 889.41"/>
  <polygon class="cls-3" points="501.06 854.82 513.78 854.82 513.78 889.41 523.12 889.41 523.12 854.82 535.83 854.82 535.83 846.97 501.06 846.97 501.06 854.82"/>
  <path class="cls-3" d="m592.96,869.44v-.12c4.7-1.9,6.72-5.65,6.72-10.64,0-6.42-4.81-11.71-12.42-11.71h-22.89v42.44h9.33v-16.58h9.33c4.7,0,6.42,1.96,7.07,6.42.48,3.39.36,7.49,1.49,10.16h9.33c-1.66-2.38-1.6-7.37-1.78-10.05-.3-4.28-1.6-8.74-6.18-9.93Zm-9.03-3.27h-10.23v-11.95h10.23c4.16,0,6.42,1.78,6.42,5.88s-2.26,6.06-6.42,6.06Z"/>
  <polygon class="cls-3" points="619.31 871.16 639.87 871.16 639.87 863.91 619.31 863.91 619.31 854.82 641.72 854.82 641.72 846.97 609.97 846.97 609.97 889.41 642.19 889.41 642.19 881.57 619.31 881.57 619.31 871.16"/>
  <path class="cls-3" d="m670.8,846.97h-19.14v42.44h9.33v-15.22h9.81c10.58,0,14.68-6.72,14.68-13.61s-4.1-13.61-14.68-13.61Zm-2.56,19.97h-7.25v-12.72h7.25c4.34,0,8.2.95,8.2,6.36s-3.86,6.36-8.2,6.36Z"/>
  <path class="cls-3" d="m712.87,845.96c-13.14,0-20.86,9.81-20.86,22.41s7.73,22.05,20.86,22.05,20.86-9.81,20.86-22.05-7.73-22.41-20.86-22.41Zm0,36.62c-8.38,0-11.53-7.13-11.53-14.21,0-7.43,3.15-14.56,11.53-14.56s11.53,7.13,11.53,14.56-3.15,14.21-11.53,14.21Z"/>
  <path class="cls-3" d="m771.41,869.44v-.12c4.7-1.9,6.72-5.65,6.72-10.64,0-6.42-4.81-11.71-12.42-11.71h-22.88v42.44h9.33v-16.58h9.33c4.7,0,6.42,1.96,7.07,6.42.47,3.39.36,7.49,1.49,10.16h9.33c-1.67-2.38-1.6-7.37-1.78-10.05-.3-4.28-1.6-8.74-6.18-9.93Zm-9.03-3.27h-10.22v-11.95h10.22c4.16,0,6.42,1.78,6.42,5.88s-2.26,6.06-6.42,6.06Z"/>
  <polygon class="cls-3" points="784.85 854.82 797.57 854.82 797.57 889.41 806.9 889.41 806.9 854.82 819.62 854.82 819.62 846.97 784.85 846.97 784.85 854.82"/>
  <path class="cls-3" d="m441.18,246.31c3.09.17,6.19.38,9.29.44,1.81.04,3.42.62,5.01,1.33.61.28,1.31.61,1.12,1.43-.16.73-.85,1.02-1.52,1.15-.52.11-1.08.2-1.61.14-1.81-.22-3.44.6-5.13.96-2.43.51-3.91,2.27-4.48,4.69-.26,1.1.61,1.89,1.65,1.54.37-.13.68-.43,1.04-.61,2.77-1.37,6.86-1.53,9.06,1.63,1,1.43,2.26,2.67,3.35,4.04.86,1.08,1.73,2.13,3.2,2.27,6.08.58,12.08.84,17.23-3.48,2.27-1.9,2.8-1.78,4.45.6,1.24,1.79,2.71,3.34,4.23,4.86.52.52.99.29,1.01-.43.06-2.16.1-4.32.05-6.48-.03-1.19.58-1.72,1.59-1.94.65-.15,1.33-.24,1.99-.25,4.72-.04,9.44-.1,14.17-.06,2.3.02,2.34.12,2.48,2.64.11,1.87-.07,3.77.83,5.54.73,1.45,1.12,1.61,2.31.63,1.57-1.3,2.8-2.89,3.9-4.6,1.4-2.16,1.54-2.25,3.57-.72,4.83,3.64,10.34,4.17,16.09,3.87,1.15-.06,2.13-.47,2.98-1.1,2.06-1.53,3.96-3.22,5.13-5.6,1.37-2.78,2.93-3.49,5.8-2.78,1.7.42,3.31,1.09,4.83,1.99.39.23.91.82,1.33.37.3-.33.34-1.01.31-1.52-.15-2.15-1.7-3.76-3.98-4.48-2.77-.88-5.64-.22-8.43-.66-.37-.06-.72-.26-1.07-.39.2-.34.35-.73.62-1.01,3.42-3.56,7.7-4.72,12.51-4.43,1.73.11,3.49.26,5.22-.11,1.68-.36,2.19-1.38,1.62-2.99-.6-1.69-1.67-3.02-3.19-4.03-5.65-3.75-11.57-3.79-17.64-1.31-3.47,1.42-6.76,3.23-10.03,5.08-3.98,2.24-8.05,4.21-12.51,5.4-3.76,1-7.51,1.84-11.38,2.34-7.81,1.01-15.51.91-23.22-.73-6.63-1.41-12.69-4.09-18.52-7.47-4.64-2.68-9.38-5.12-14.72-6.26-4.1-.88-7.42.51-10.51,2.83-1.69,1.27-2.47,3.12-2.35,5.32.11,2.02.26,2.25,2.37,2.37Z"/>
  <path class="cls-3" d="m483.45,287.62c-.04-.59-.34-1.01-.96-1.07-2.35-.21-4.66.02-6.22,2-1.57,2-3.12,4.04-4.14,6.4-.42.98-.87,1.94-.89,3.07-.03,2.08.33,2.76,2.47,2.78,3.17.03,6.02,1.15,8.92,2.16,3.15,1.1,6.29,2.22,9.42,3.37,5.82,2.14,11.48,1.94,17.11-.81,4.33-2.12,8.9-3.61,13.67-4.46,6.24-1.11,6.25-1.14,3.58-7.13-.54-1.21-1.34-2.3-1.92-3.5-.89-1.83-2.5-2.95-4.22-3.55-4.38-1.54-4.51-2.26-4.36,2.75.02.8.25,1.59.39,2.38-.15.31-.3.63-.45.94-4.65,1.29-9.39,2.08-14.15,2.84-5.49.87-10.68.08-15.74-1.97-2.97-1.21-2.94-1.28-2.54-4.6.06-.53.06-1.08.02-1.61Z"/>
  <path class="cls-3" d="m532.74,318.77c-2.44-.87-4.99-1.07-7.5-1.42-7.5-1.05-15.06-.94-24.55-.94-8.18-.41-18.24.35-28.25,1.75-3.18.45-6.33,1.14-9.47,1.84-1.33.29-2.44.88-2.25,2.7.18,1.74,0,3.51.06,5.26.01.4-.29,1.19.58,1.11.31-.03.74-.45.83-.77.97-3.47,3.76-4.54,6.81-5.48,2.98-.92,5.97-1.51,9.1-1.5,12.41.03,24.82,0,37.23.02,3.23,0,6.42.15,9.65.66,4.11.64,7.92,1.4,10.54,4.98.16.21.36.4.58.57.85.65,1.47.38,1.64-.72.61-3.87-1.2-6.69-5-8.04Z"/>
  <path class="cls-3" d="m525.01,332.04c-2.02-.71-4.12-1.19-6.11-1.97-5.61-2.19-11.56-2.36-17.42-2.76-3.33-.23-6.74.2-10.07.66-1.86.26-3.74.45-5.59.74-3.32.52-6.56,1.49-9.38,3.43-1.29.89-1.24,1.56.09,2.38,2.86,1.76,6.11,2.01,9.31,2.17,3.77.18,7.56.04,11.34.04,6.61.03,13.23.16,19.79-.81,2.8-.41,5.52-1.1,8.09-2.3.36-.17.72-.34,1.07-.52-.37-.36-.68-.9-1.12-1.05Z"/>
  <path class="cls-3" d="m800.33,400.12c0,.27,0,.55.06.8.17.71.62,1.25,1.33,1.35,2.13.31,4.26.61,6.4.78,1.22.1,2.04-.46,2.01-1.9-.05-2.43-.01-4.85-.01-7.28.18-4.19-.39-8.32-.85-12.46-.35-3.18-.24-3.19-3.65-3.37-.94-.05-1.88-.13-2.82-.18-2.7-.15-3.07.06-3.02,2.87.1,6.46.36,12.92.56,19.38Z"/>
  <path class="cls-3" d="m200.65,380.88c.03-.81-.54-1.05-1.26-1.27-2.77-.82-5.59-.71-8.42-.74-1.17-.01-1.72.42-1.7,1.64.04,2.29.01,4.59.01,7.62.31,3.32-.51,7.31-.78,11.33-.34,5.13-.27,4.93,4.97,3.98,3.87-.7,5.74-2.68,6.54-6.47,1.14-5.37.43-10.73.64-16.09Z"/>
  <path class="cls-3" d="m916.19,229.47c-3.15-8.82-8.34-16.31-15.79-21.99-12.57-9.6-26.55-16.72-41.13-22.76-11-4.56-22.36-7.47-34.24-8.23-5.38-.35-10.75,0-16.15.41-7.94.6-15.73,1.99-23.41,3.77-12.96,3-25.38,7.71-37.3,13.64-4.57,2.27-8.93,4.97-12.8,8.38-6.05,5.34-9.65,12.17-12,19.72-1.39,4.47-2.47,9.03-3.39,13.63-.45,2.27-1.16,4.08-4.12,4.59-3.01.51-5.74,2.27-8.27,4.06-7.03,5-11.54,11.72-12.53,20.33-.73,6.31.07,12.56,1.98,18.71,4.84,15.59,12.42,29.69,22.64,42.35,6.78,8.38,15.25,14.17,26.02,16.55,6.76,1.5,13.59,1.75,20.42,2.15,4.99.29,9.84,1.08,14.65,2.4,1.71.47,3.15,1.31,3.72,2.81.88,2.28.46,4.79.52,7.21.05,1.81-1.52,2.53-2.6,3.39-2.55,2.02-3.38,4.42-3.28,7.7.35,10.78.82,21.56,1.52,32.32.36,5.51.83,10.98,1.68,16.44.4,2.56,1.51,4.13,3.63,5.33,3.04,1.72,6.04,3.5,9,5.34,2.02,1.25,3.55,2.97,3.64,5.49.1,2.7.4,5.47-.08,8.09-1.72,9.36-5.67,17.85-10.89,25.77-.46.7-.9.89-1.48.17-.34-.42-.69-.83-1-1.27-4.32-6.11-9.56-11.27-15.7-15.57-4.1-2.87-8.48-5.18-13.08-7.07-1.54-.63-2.22-1.48-2.36-3.26-.25-3.2-.84-6.38-1.49-9.53-5.41-26.25-21.47-43.59-45.59-54-8.65-3.74-17.75-5.73-27.18-6.81-7.51-.86-14.77-.43-22.02,1.16-4.69,1.03-9.3,2.51-13.87,4.01-1.65.54-2.62.34-3.8-.92-4.07-4.37-8.83-7.97-13.84-11.11-11.64-7.3-24.16-12.83-37.17-17.21-6.47-2.18-12.95-4.32-19.49-6.26-1.81-.54-2.09-1.3-1.64-2.85,2.62-9.02,4.22-18.24,5.65-27.52,1.09-7.03,1.83-14.11,2.92-21.14.33-2.1.88-3.83,2.17-5.47,2.83-3.6,5.1-7.55,7.12-11.66,5.8-11.82,8.33-24.31,7.81-37.45-.21-5.35-2.95-9.04-7.42-11.57-2.33-1.32-2.61-1.46-2.25-3.9.18-1.18.48-2.38.92-3.49,2.81-6.99,4.68-14.19,5.79-21.67,1.32-8.85.57-17.07-4.58-24.68-3.79-5.59-6.38-11.73-8.03-18.34-1.03-4.13-2.28-8.25-4.28-12.09-5.43-10.43-14.5-16.38-25.12-20.3-12.58-4.65-25.79-6.53-39.03-7.22-10.73-.56-21.55-.76-32.34.43-8.45.93-16.71,2.46-24.75,5.1-7.97,2.62-15.4,6.3-21.53,12.23-6.56,6.34-10.92,13.79-12.54,22.92-.88,4.97-2.1,9.97-5.51,14.09-4.33,5.23-5.4,11.62-5.65,18.12-.19,4.97-.03,9.94.58,14.93.73,5.94,2.19,11.55,4.74,16.93.74,1.57,2.2,3.41,1.85,4.75-.44,1.71-3.08,1.04-4.65,1.77-.24.11-.5.22-.76.28-5.22,1.14-8.06,4.1-8.32,10.7-.19,4.75.74,9.36,1.63,13.98,1.59,8.28,3.39,16.5,6.18,24.5,1.86,5.31,4.93,9.47,9.45,12.69,2.84,2.02,4.72,4.68,5.56,8.14.63,2.61,1.19,5.2,1.59,7.87.49,3.21.44,6.46.92,9.64,1.23,8.22,2.78,16.38,5.36,24.31.97,3.01.9,3.04-1.96,4.25-5.68,2.4-11.35,4.82-17.06,7.16-19.26,7.91-38.04,16.76-55.48,28.24-1.12.74-1.98.81-3.31.49-5.86-1.41-11.73-3.07-17.74-3.45-6.56-.41-13.08-1.07-19.76-.35-7.7.83-15.16,2.27-22.25,5.16-18.65,7.58-32.63,20.48-42.34,38.09-4.64,8.42-7.58,17.42-9.59,26.76-.47,2.2-1.36,3.51-3.63,4.24-2.8.9-5.34,2.46-7.86,4.03-7.02,4.37-12.8,10.28-19.16,15.47-4.03,3.28-3.88,3.45-5.95-1.54-3.82-9.19-5.1-18.9-5.42-28.72-.25-7.73-.93-6.27,5.7-8.24.38-.11.72-.4,1.1-.51,7.26-2.01,10.92-7.06,11.62-14.28.72-7.51,1.36-15.04,1.6-22.57.28-8.63.06-17.29.12-25.93.01-1.73-.33-3.17-1.7-4.32-2.53-2.12-1.68-5.01-1.31-7.56.32-2.17,2.9-1.5,4.32-2.38.21-.13.54-.05.79-.14,6.35-2.25,13.06-1.61,19.59-2.21,7.5-.69,14.48-2.7,21.08-6.13,9.23-4.8,16.75-11.6,23.14-19.79,8.87-11.37,14.02-24.31,16.71-38.33.94-4.87,1.56-9.81,2.28-14.72,1-6.82-1.26-12.42-6.36-16.98-3.54-3.16-7.36-6.04-11.71-7.8-3.51-1.43-4.82-3.74-5.12-7.12-.02-.27-.06-.54-.1-.8-1.28-10.37-5.76-19.18-12.96-26.7-4.7-4.9-10.18-8.85-15.87-12.41-12.25-7.67-25.46-13.24-39.67-16.11-7.5-1.51-15.03-3.04-22.76-2.78-1.08.04-2.17,0-3.24-.13-7.31-.92-14.57.1-21.71,1.23-11.44,1.81-22.25,5.83-32.61,11.02-9.5,4.76-18.45,10.45-27.48,16.01-5.7,3.51-10.61,7.78-14.57,13.19-6.03,8.24-9.23,17.56-10.11,27.61-.89,10.12.1,20.19,2.53,30.04,4.76,19.34,11.85,37.82,21.23,55.4,2.22,4.16,4.42,8.35,5.47,12.95,1.07,4.69,1.98,9.47-1.74,13.68-1.33,1.51-1.9,3.5-2.48,5.45-.92,3.13-1.33,6.38-1.37,9.55-.14,12.82-.92,25.64-.16,38.45.13,2.13.57,4.26,1.05,6.35.3,1.3,1.04,2.36,2.35,3.04,3.58,1.84,7.09,3.83,10.65,5.72,2.07,1.09,2.55,1.91,1.98,4.1-.24.9-.66,1.76-1.03,2.62-1.5,3.58-3.17,7.1-4.48,10.75-5.56,15.42-9.74,31.17-11.5,47.53-.75,6.97-1.41,13.94-1.33,20.95.03,2.42.51,4.83.59,7.25.29,7.96,1.69,15.73,3.97,23.34,6.01,20.05,16.43,37.56,30.87,52.68,5.71,5.98,12.12,11.1,19.67,14.59,8.61,3.98,17.5,4.68,26.67,2,4.96-1.45,9.41-3.87,13.82-6.44,4.52-2.64,8.79-5.71,13.61-7.81,2.94-1.28,5.95-2.26,9.12-2.98,5.99-1.36,11.9-.15,17.71.45,5.61.58,11.07.24,16.49-.53,9.35-1.33,18.26-4.44,26.56-8.91,13.99-7.55,26.21-17.42,36.65-29.45.34-.39.61-.97,1.23-.86.63.11.74.72.81,1.25.12.93.26,1.84.5,2.77,3.22,12.71,8.44,24.58,15.19,35.76,3.61,5.99,7.56,11.85,13.03,16.37,2.92,2.41,5.61,5.04,8.32,7.67,2.48,2.41,4.15,5.33,4.99,8.61.97,3.77,1.62,7.64,1.74,11.53.15,5.13.08,10.26.05,15.4,0,.02,0,.03,0,.05H93.92s0,184.63,0,184.63l34-6.9c13.39-2.72,26.99-5.32,40.44-7.74h.08s.08-.03.08-.03c4.63-.86,13.13-2.61,13.13-2.61l32.88-5.08c7.3-1.13,14.72-2.23,22.05-3.27l8.24-1.17,8.29-1.11c7.33-.98,14.76-1.92,22.1-2.81l15.94-1.93,15.94-1.66c9.12-.95,18.38-1.84,27.52-2.65l4.12-.37,4.1-.35c22.9-1.94,46.14-3.47,69.1-4.56l26.88-1.28,19.56-.57,28.6-.21c7.41-.06,14.83-.07,22.24-.04l28.5.12,6,.15,27.2,1.01c7.37.27,14.85.6,22.22.96,0,0,22.43,1.16,29.91,1.47,39.43,1.65,116.39,10.2,154.75,16.62,5.92.99,23.7,3.84,23.7,3.84,6.87,1.11,13.84,2.28,20.7,3.47l14.79,2.57,14.73,2.8c7.47,1.42,15.04,2.91,22.5,4.42l34,6.9v-184.63h-274.76c-.02-.29-.05-.62-.07-1.02-.36-5.69.58-11.31.96-16.96.34-5,1.98-9.68,5.09-13.79,2.36-3.13,4.7-6.26,7.55-8.94,3.16-2.97,5.95-6.28,8.65-9.64,9.84-12.21,17.54-25.69,23.15-40.35.38-1,.7-2.03,1.16-3,.46-.98,1.1-1.43,2.22-.66,1.99,1.38,3.98,2.74,5.85,4.3,5.98,5.01,11.83,10.18,18.46,14.35,7.17,4.51,14.39,8.86,22.42,11.75,11.02,3.97,22.49,5.1,34.05,5.53,6.07.22,12.16.26,18.23-.01,4.76-.21,8.64.83,12.62,3.82,7.47,5.62,16.13,8.81,25.48,10.21,8.41,1.26,16.61,1.01,24.63-1.88,7.23-2.6,13.18-7.24,18.66-12.44,7.58-7.18,13.74-15.54,18.74-24.67,11.4-20.79,16.72-43.13,16.48-66.84-.06-6.21-.21-12.42-1.17-18.54-1.87-11.93-5.03-23.56-9.17-34.91-2.67-7.3-5.68-14.47-8.7-21.63-1.04-2.45-.92-2.68,1.59-3.24,3.17-.71,6.08-2.04,8.97-3.47,4.42-2.18,6.65-5.76,6.63-10.6-.03-7.83,1.06-15.63.68-23.47-.19-3.91-.43-7.82-.56-11.73-.16-4.71-.07-9.41-.77-14.12-.45-3-1.64-5.44-4.31-6.25-3.96-1.21-4.22-3.85-3.88-7.09.11-1.07.26-2.13.45-3.19,1.09-6.05,3.97-11.38,6.96-16.6,6.63-11.56,12.02-23.68,16.56-36.16,5.35-14.7,9.12-29.75,8.47-45.62-.25-5.97-1.32-11.74-3.31-17.32Zm-341.27-61.04c.67-1.98.8-2.04,2.51-.72,2.86,2.2,4.08,5.38,4.71,8.66,1.71,8.84,1.22,17.61-1.41,26.26-1.03,3.39-3.01,6.26-4.7,9.29-.12.21-.41.5-.58.48-.47-.06-.41-.53-.41-.87,0-4.31,0-8.62,0-13.4.67-7.76-.93-15.9-.83-24.12.02-1.89.08-3.74.7-5.57ZM163.34,802.97c-13.71,2.8-27.39,5.77-41.05,8.91v-138c13.44-.06,26.88-.12,40.32-.18,14.85-.36,31.13,5.22,31.01,30.85-.05,11.06-4.67,20.36-11.43,25.91,9.14,3.1,14.75,13.9,14.68,27.81-.13,29.1-15.19,40.83-33.53,44.69Zm69.24-12.66c-7.47,1.21-14.93,2.46-22.38,3.77.2-40.19.4-80.38.6-120.57,7.48-.03,14.97-.05,22.45-.08-.22,38.96-.45,77.92-.67,116.88Zm71.58-9.99c-7.63-14.09-15.26-28.5-22.88-43.29-3.09,4.34-6.17,8.73-9.26,13.18-.08,11.41-.15,22.83-.23,34.24-7.48,1.03-14.96,2.11-22.43,3.24.24-38.1.47-76.21.71-114.31,7.48-.02,14.97-.05,22.45-.07-.09,14.22-.19,28.43-.28,42.65,9.55-14.73,19.1-28.94,28.65-42.73,9.3-.02,18.59-.04,27.89-.06-10.71,13.73-21.44,27.89-32.16,42.59,11.81,21.24,23.62,41.67,35.46,61.5-9.32.94-18.63,1.96-27.93,3.06Zm524.37-106.67c10.06,26.2,20.09,53.58,30.06,82.32.08.01.16.02.24.03-.04-27.41-.08-54.81-.12-82.22,7.04.03,14.08.06,21.12.1v138c-7.61-1.75-15.22-3.45-22.84-5.09-9.94-29.77-19.94-58.14-29.99-85.29-.08,0-.16-.01-.24-.02.09,26.38.18,52.75.27,79.13-7-1.38-14-2.71-21.01-4-.18-41.02-.36-82.03-.54-123.05,7.69.03,15.37.06,23.06.09Zm-91.14-377.38c-.29,1.37-2.75,1.16-4.09,2.02-.79.51-1.73.81-2.46,1.38-6.26,4.88-6.81,4.63-6.69,13.04,0,.54.04,1.08-.01,1.62-.06.6.29,1.4-.43,1.7-.19.08-.81-.6-1.09-1.03-2.25-3.5-4.66-6.92-6.65-10.57-3.79-6.95-7.44-14-9.16-21.83-.72-3.28-1.59-6.54-1.31-9.46-.16-11.34,4.89-18.92,14.51-23.61,2.51-1.23,2.56-1.2,3.33,1.69,1.35,5.04,2.82,10.06,3.94,15.15,1.55,7.1,3.92,13.91,6.81,20.56.64,1.47,1.29,2.95,1.85,4.45.6,1.62,1.76,3.42,1.45,4.89Zm59.17,111.01c-3.94-1.05-5.46-3.83-5.98-7.65-.78-5.77-.85-11.56-.98-17.35,0-3.78.04-7.56-.02-11.34-.02-1.46.7-1.98,1.98-1.75,2.38.42,4.78.7,7.18.97,9.8,1.11,19.6,1.6,29.44.9,1.88-.13,3.78-.17,5.67-.22,8.89-.2,17.71-1.13,26.52-2.31,3.86-.52,7.74-.85,11.54-1.72.52-.12,1.08-.09,1.61-.05.52.03,1.16.07,1.19.77.01.33-.23.81-.51,1-.77.53-1.57,1.05-2.43,1.39-4.99,1.98-10.15,3.27-15.46,4.19-7.68,1.33-15.46,1.77-23.12,3.15-.26.05-.55,0-.8.07-.89.29-1.84.52-2.03,1.67-.18,1.08.39,1.81,1.15,2.43,1.07.88,2.34,1.46,3.69,1.46,5.24-.03,10.47.38,15.73-.52,3.15-.54,6.4-.7,9.61-.98,3.88-.33,7.73-.82,11.57-1.43,1.41-.22,2.02.06,2.06,1.52.12,4.05.41,8.09.42,12.13,0,3.5-.37,7.01-.39,10.51,0,1.74-.69,2.13-2.32,2.43-5.68,1.06-11.39,1.76-17.13,2.39-11.55,1.27-23.14,1.8-34.74,1.46-6.95-.21-13.94-.64-20.77-2.3-.92-.23-1.78-.59-2.68-.82Zm78.49-53.59c-3.24.8-6.59,1.2-9.91,1.65-5.98.82-11.95,1.68-17.95,2.25-4.28.41-8.6.75-12.88.86-10.91.28-21.83.67-32.76.21-3.16-.13-3.49-.33-3.64-3.47-.29-6.32-1.25-5.44,4.88-5.49,5.53-.04,11.06,0,16.58,0,4.85,0,9.71.11,14.56-.03,6.99-.2,13.96-.74,20.93-1.36,5.89-.52,11.77-1.04,17.62-1.83.66-.09,1.35.03,2.02-.04,1.68-.16,2.3.79,1.96,2.19-.41,1.71,1.52,4.33-1.43,5.06Zm-8.61,75.29c-.95.48-1.99.74-3.05.98-6.42,1.49-12.96,2.33-19.49,2.94-5.76.54-11.6.42-17.39-.14-6.48-.49-12.87-1.53-19.07-3.55-1.28-.42-2.54-.85-3.55-1.78-.57-.52-1.31-1.07-.77-2.02.43-.76,1.13-1.17,2-1.05,1.18.16,2.37.34,3.53.65,3.45.9,7.09,1.08,10.39,2.58,5.7,1.29,11.54.54,17.3,1.27,4.26.54,8.62.49,12.92-.19.4-.06.8-.17,1.2-.17,5.27.05,10.47-.78,15.69-1.28.65-.06,1.63-.36,1.82.34.28,1-.91,1.1-1.53,1.41Zm-306.17-255.88c.4.03.81,0,1.21,0,4.94-.17,4.66-.11,5.59,4.61.93,4.7.4,9.42,1,14.04-.42,4.75.03,9.49-1.08,14.15-.76,3.18-1.4,6.29-4.67,7.99-.67.35-1.08,1.18-1.63,1.77-.43.46-.76,1.25-1.57.84-.64-.32-.93-1.03-.94-1.7-.03-1.48-.01-2.97.14-4.44.93-9.02.56-18.06.23-27.09-.1-2.69-.28-5.39-.45-8.08-.1-1.58.66-2.22,2.18-2.1Zm-16.42.71c2.39.18,5.33-.91,7.05.47,1.65,1.33.49,4.29.63,6.52.22,3.49.39,6.98.5,10.48.21,6.45-.14,12.87-1.29,19.24-.09.52-.29,1.02-.42,1.54-.69,2.65-1.92,5.2-4.89,4.99-1.51-.11-3.57.72-3.57-.33-.01-6.73,0-13.46,0-20.19h-.03c0-6.86.03-13.73-.02-20.59-.01-1.53.42-2.24,2.06-2.12Zm-9.33,2.61c-.26,7.55,1.13,15.04.71,22.77.41,5.1-.3,10.31-.75,15.54-.21,2.47-1,3.23-3.39,3.7-.53.1-1.07.13-1.59.26-4.41,1.12-5.2,1.15-5.31-3.99-.26-12.64-.82-25.3.59-37.93.17-1.52.79-2.14,2.28-2.14,1.89,0,3.77-.02,5.65-.13,1.47-.09,1.86.65,1.81,1.93Zm-98.27-36.6c2.95-5.24,7.43-8.75,12.73-11.35,5.23-2.57,10.8-3.91,16.5-4.87,7.42-1.26,14.93-1.65,22.37-2.61,6.75-.87,13.46-.68,20.17-.5,5.07.13,10.12,1.14,15.16,1.94,1.34.21,2.66.3,4,.42.62-.03,1.49-.19,1.38.74-.09.85-.91.68-1.55.52-.8.09-1.61.28-2.4.25-9.56-.34-19.08.68-28.63.99-5.2.17-10.46.38-15.64,1.27-2.11.36-4.29.3-6.43.43l-.08,1.31c6.2.11,12.34,1.13,18.56,1.04,1.99-.03,4.02.42,5.97.9,2.59.63,3.62,2.25,3.8,4.94.2,2.95-.86,5.56-1.99,8.13-1.46,3.32-3.22,6.49-4.69,9.8-1.59,3.58-4.96,3.99-8.07,4.37-8.95,1.09-17.93,1.73-26.98,1.82-7.94.08-15.88.87-23.84.64-.81-.02-1.62,0-2.43,0-.97.01-1.57-.45-1.53-1.43.26-6.44.33-12.91,3.62-18.76Zm69.09,58.02c0-7.01-.02-14.02.01-21.03.01-2.34.14-2.46,2.49-2.68,1.61-.15,3.23-.15,4.85-.17,3.41-.04,3.6.04,3.79,3.57.2,3.63.19,7.28.2,10.91.03,8.09.01,16.18,0,24.26,0,.94,0,1.89-.05,2.83-.26,4.86-.55,5.12-5.36,5.32-1.2.05-2.41.24-3.6.4-2.21.3-2.3.31-2.31-1.99-.04-7.14-.02-14.29-.02-21.43h-.02Zm-22.67-20.74c.01-2.59.08-2.65,2.75-2.66,2.69-.01,5.37.11,8.06.17,1.25,2.5.87,5.28.99,7.88.49,10.37.42,20.75.19,31.13-.03,1.34-.37,2.66-.53,4q-.48,4.04-4.71,4.06c-1.62,0-3.24,0-4.85.11-1.39.1-1.92-.45-1.92-1.83,0-4.31-.08-8.63-.11-12.94-.02-2.97,0-5.93,0-8.9h.13c0-7.01-.02-14.02.01-21.03Zm-7.31,1.71c0,6.34,0,12.69,0,19.03,0,6.75.02,13.5,0,20.24-.01,2.79-.18,2.92-2.97,2.94-.67,0-1.35-.09-2.02-.16-2.72-.27-4.28-1.58-4.67-4.13-.36-2.39-.78-4.81-.79-7.22-.06-9.45-.43-18.92.21-28.33.57-8.39-1.02-6.49,7.19-6.76.4-.01.81.04,1.21,0,1.41-.1,1.93.61,1.85,1.95-.05.81,0,1.62,0,2.43Zm-17.82,25.14c.03,2.27-.03,4.52.54,6.8.71,2.86-2.18,5.82-5.04,5.49-.96-.11-1.66-.71-2.29-1.5-1.04-1.31-1.46-2.89-1.9-4.4-.51-1.79-.91-3.69-.93-5.55-.08-7-.13-14.01.11-21,.09-2.67.64-5.33.59-8.04-.02-1.35.48-2.01,1.97-1.66.9.22,1.86.28,2.79.31,4.16.14,4.16.13,4.15,4.49,0,4.44,0,8.89,0,13.33,0,0,0,0,0,0,0,3.91-.03,7.81.01,11.72Zm-25.02-28.32c.13-2.22.72-2.53,3.16-2.58.54-.01,1.08.01,1.61.01,3.39,0,3.22-.04,3.29,3.37.16,7.39,1.12,14.76.72,20.93,0,5.28.03,9.32-.02,13.35-.01,1.02.27,2.25-1.05,2.79-1.43.57-2.56.06-3.63-.98-1.2-1.17-1.96-2.61-2.4-4.14-.95-3.34-1.72-6.72-1.82-10.24-.07-2.28-.39-4.55-.6-6.82-.48-5.26.43-10.46.74-15.69Zm-16.6,51.34c-.39.7-.99,1.27-1.5,1.9-2.19,2.7-4.61,5.25-5.1,8.94-.06.44-.57.82-.87,1.22-.27-.46-.69-.9-.78-1.39-.3-1.71-.49-3.45-.7-4.98.12-1.42.12-2.65.33-3.83.61-3.37,3.18-5.46,6.51-5.39,2.15.04,3.15,1.66,2.11,3.54Zm9.36-16.32c-.37-.02-.74-.04-1.12-.06-3.16-1.3-4.67-3.94-5.4-7.05-1.72-7.35-2.28-14.81-1.87-22.34.14-2.53-.07-5.09.88-7.56.44-1.14.64-2.58,1.89-2.84,1.54-.32,3.2-.14,4.81-.07.22,0,.49.58.6.93.11.37.06.8.07,1.2.24,10.87.47,21.74.73,32.61.04,1.76-.1,3.49-.59,5.18h0Zm4.14,66.6c-1.3-.86-2.28-2.02-2.5-3.53-.93-6.38-1.71-12.74-1.27-19.25.42-6.05,1.05-12.03,2.72-17.86.92-3.22,2.07-6.36,3.56-9.37.43-.87.92-1.27,2.18-1.07,2.8.46,5.5,1.2,8.16,2.09,5.12,1.72,10.44,2.37,15.74,3.13,4.25.61,8.49,1.25,12.73,1.87,3.18.46,6.36.96,9.56,1.34,4.93.59,9.87,1.13,14.81,1.64,1.31.13,1.85.82,2.07,2.03,1.69,9.04,2.4,5.75,2.52,5.23,1.55-6.95,1.91-6.82,8.15-8.05,7.25-1.44,14.62-1.88,21.97-2.65,11.25-1.18,22.49-2.31,33.82-2.23.67,0,1.35-.02,2.02.01,3.4.17,3.68.44,3.71,3.75.04,5.66.09,11.32.6,16.98.57,6.33-.28,12.65-.58,18.98-.08,1.63-1.06,2.73-1.95,3.88-6.05,7.75-12.06,15.54-19.08,22.45-1.88,1.85-2.64,3.8-2.54,6.44.18,4.72.11,9.45,0,14.17-.3,13.6-5.33,25.06-15.69,34.04-4.22,3.65-9.04,5.63-14.68,5.74-11.6.23-23.2.37-34.81,0-5.31-.17-9.88-1.95-13.82-5.62-8.17-7.61-11.98-17.15-13.46-28.03-.92-6.74-.58-13.45-.61-20.18,0-1.55-.19-2.77-1.37-3.98-4.5-4.64-8.9-9.4-13.26-14.18-2.64-2.9-5.43-5.61-8.71-7.77Zm-219.36,105.92c-.42,5.5-1.2,11-1.22,16.49-.01,3.33-1.32,4.97-4.19,5.89-6.52,2.09-13.13,3.57-20,4.24-8.77.86-17.52.62-26.28.67-8.12.04-16-1.64-23.82-3.6-2.56-.64-5.33-.58-7.65-2.09-.49-.04-.76-.25-.63-.78-.23-7.84-.27-15.67.03-23.51-.13-.53.08-.71.59-.6,4.62.65,9.25,1.31,13.87,1.95,3.19.45,6.43.72,9.61.87,7.22.35,14.46,1.51,21.73.26,2.69-.46,3.98-1.97,3.52-4.68-.25-1.43-1.53-1.48-2.47-1.64-2.78-.46-5.58-.83-8.39-1-4.69-.28-9.33-.94-14-1.41-3.2-.32-6.4-.63-9.59-1.05-2.41-.32-4.76-.76-6.97-1.81-3.25.45-6.02-.95-8.77-2.36-.61-.31-1.16-.81-.93-1.59.24-.83,1.03-.72,1.67-.73,3.31-.06,6.63-.13,9.57,1.8,4.33-.48,8.59.52,12.84.95,4.68.48,9.4.82,14.07,1.14,8.18.55,16.44.91,24.63.09,3.57-.36,7.07-1.42,10.63-2,3.18-.52,6.32-1.28,9.58-1.31,1.3-.01,1.85.25,2.13,1.65.93,4.69.78,9.39.43,14.11Zm-13.05,43.09c.14.81-1.32,1.08-2.21,1.4-6.58,2.37-13.35,3.82-20.28,4.81-5.12.73-10.21.58-15.32.71-5.01.13-9.93-.43-14.8-1.58-.65-.15-1.34-.1-2.02-.15-4.13-.42-8.04-1.51-11.62-3.66-.33-.2-.58-.51-.87-.77.38-.08.76-.24,1.15-.24,4.67-.02,9.25.75,13.8,1.7,1.84.45,3.68.73,5.59.73,8.09.02,16.18.02,24.22-.94,5.33-.63,10.63-1.5,15.95-2.21,1.33-.18,2.69-.22,4.04-.19.83.02,2.18-.73,2.37.39Zm-74.35-75.91c-.02-1.47-.32-2.94-.43-4.42-.13-1.64.18-1.88,1.81-1.56,4.07.79,8.15,1.53,12.22,2.32,5.29,1.02,10.64,1.57,15.96,2.05,9.64.86,19.33,1.83,29.02,1.46,6.6-.25,13.19-.49,19.79-.49.81,0,1.62-.02,2.43.01,1.19.05,2.67-.19,3.14,1.24.51,1.54-.78,2.47-1.85,3.2-.86.59-1.92.96-2.95,1.2-5.88,1.37-11.81,2.41-17.89,2.49-3.49.05-6.98.47-10.41.71-10.9-1.06-21.82-.8-32.58-2.97-5.23-1.06-10.56-1.71-15.83-2.64-1.56-.28-2.41-.9-2.43-2.6Zm152.6-99.16c.11-.66.47-1.27.56-1.93.24-1.72,1.02-1.69,2.51-1.22,6.68,2.07,11.6,6.61,16.4,11.34.65.64.72,1.4.72,2.22,0,1.89,0,3.78,0,5.67-.18,14.15-4.64,27.06-11.37,39.32-.26.47-.52.95-.85,1.37-1.94,2.45-2.55,2.43-4.31-.09-.77-1.1-1.63-2.15-2.3-3.31-1.77-3.06-4.66-4.32-7.9-4.93-2.37-.45-4.77-.68-7.17-.97-1.83-.22-1.94-.3-1.04-1.86,5.55-9.6,8.91-20,11.56-30.7,1.22-4.94,2.34-9.88,3.19-14.9Zm-160.74,75.01c-1.8-2.35-3.21-4.95-4.46-7.63-5.06-10.82-9.4-21.92-11.87-33.65-1.41-6.7-2.78-13.41-2.97-20.29-.05-2.01-.55-4.01-.64-6.03-.66-14.86,3.02-28.55,11.71-40.65,4.52-6.3,10.58-11.09,17.22-15.09,10.61-6.4,21.75-11.51,33.81-14.58,8.04-2.05,16.19-2.42,25.22-2.52,17.35.12,35.02,2.93,51.83,10.03,10.12,4.27,19.38,9.94,26.91,18.09,5.95,6.44,9.02,14.09,9.92,22.81.58,5.69.39,11.35-.24,16.94-.95,8.52-3.14,16.82-6.09,24.92-5.3,14.53-12.85,27.76-22.75,39.61-9.74,11.67-21.93,19.26-37.07,21.82-4.76.8-9.51,1.7-14.38,1.65-2.43-.03-4.76,1.06-7.22.75-.38-.05-.75-.19-1.12-.28.2-.34.35-.73.62-1.02,2.33-2.55,5.23-4.15,8.51-5.17,4-1.24,8.15-1.78,12.26-2.2,7.13-.72,13.29-3.71,18.68-7.94,18.22-14.3,30.77-32.49,36.37-55.17,2.32-9.38,2.67-19,1.67-28.52-1.17-11.13-6.71-20.26-14.93-27.79-1.02-.94-1.58-.73-1.92.59-1.51,5.78-4.29,10.93-7.69,15.82-2.52,3.63-5.76,6.41-9.41,8.7-7.39,4.63-15.54,6.98-24.15,8.29-6.07.93-12.16,1.09-18.14.56-16.19-1.44-30.86-6.7-42.58-18.63-4.68-4.76-8.37-10.14-11.17-16.18-1.19-2.57-1.27-2.62-3.82-1.39-11.44,5.53-18.95,14.51-22.32,26.65-2.5,9-2.94,18.18-1.95,27.59,1.1,10.46,3.16,20.65,6.28,30.65,3.05,9.76,7.5,18.93,12.31,27.93.63,1.18,1.31,2.34,1.82,3.58.3.72,1.2,1.46.72,2.19-.6.93-1.78.54-2.62.32-2.74-.71-4.68-2.61-6.34-4.77Zm103.18,202.57c-.37,19.68-6.33,37.65-16.89,54.16-3.69,5.77-8.47,10.57-14.48,13.83-11.75,6.38-19.19,5.63-28.7-2.92-4.33-3.9-7.92-8.49-10.9-13.48-6.08-10.16-11.6-20.6-15.4-31.87-3-8.9-5.4-17.92-7.02-27.2-2.08-11.89-2.75-23.82-2.13-35.81.48-9.26,2.29-18.37,4.3-27.42,1.01-4.58,2.02-9.16,3.63-13.57.41-1.13.86-2.26,1.41-3.33,1.08-2.13,2.37-3.29,10.64-1.01,4.82,1.33,9.32,2.5,14.13,2.7,5.1.21,10.27.47,15.26-.96,4.76-1.37,9.44-2.99,14.16-4.51.89-.29,1.76-.65,2.67-.87.92-.23,1.61.09,1.66,1.16.06,1.21.03,2.43.11,3.64.71,11.51,2.96,22.6,8.86,32.7,2.37,4.06,4.72,8.13,7.18,12.14,5.4,8.81,8.6,18.46,10.48,28.52.86,4.6,1.55,9.32,1.04,14.1Zm73.7,25.43c-2.83,2.72-6.18,4.75-9.5,6.8-2.05,1.26-4.25,2.3-6.41,3.36-5.31,2.6-11.03,3.17-16.21,3.25-2.5-.07-4.41.22-6.2-.63-.49-.23-1.09-.38-1.15-.99-.08-.83.67-1.14,1.25-1.35,1.13-.4,2.31-.83,3.49-.92,8.68-.71,16.72-3.6,24.59-7.06,3.07-1.35,6.04-2.9,9.12-4.22.73-.31,1.72-1.59,2.42-.42.53.9-.75,1.57-1.39,2.18Zm46.78-72.16c-1.63-6.15-2.71-12.35-2.17-18.7.58-6.74,3.35-12.69,7.63-17.86,2.04-2.47,4.29-4.84,7.05-6.59,2.96-2.89,6.37-5.18,9.75-7.52.85-.59,1.92-.99,2.14-2.2-3.75-.23-7.21,1.01-10.46,2.53-13.55,6.36-23.13,16.32-27.49,30.9-1.29,4.32-1.3,4.27-5.68,3.03-7.45-2.11-14.82-4.5-22.39-6.2-.81-.18-1.26.03-1.75.52.04.23.07.46.09.7,7.27,4.47,13.86,9.73,19.02,16.62,1.78,2.39,3.12,5.02,4.1,7.83,1.25,3.6.72,7.27-.2,10.74-3.13,11.84-8.33,22.58-16.59,31.86-7.86,8.83-17.12,15.51-27.82,20.3-5.3,2.37-10.92,3.7-16.68,4.27-2.41.24-4.75.98-7.22.87-4.09-.18-7.46-3.43-7.54-7.45-.02-.77.25-1.32,1.1-1.37.94-.06,1.89-.07,2.83-.11,15.23-.71,29.47-4.52,41.69-14.04,5.74-4.47,11.22-9.31,15.16-15.59.69-1.1,1.65-2.11,1.6-3.55-2.14-.07-3.64,1.32-5.25,2.39-4.14,2.75-8.15,5.69-12.3,8.41-7.58,4.97-15.97,7.49-25,7.84-6.47.25-12.91-.06-19.33-.92-4.34-.58-4.42-.75-5.38-4.93-.84-3.65-1.83-7.26-2.78-10.88-2.19-8.29-6.59-15.51-10.98-22.74-1.95-3.22-3.83-6.48-5.71-9.73-.67-1.16-1.47-2.35-.11-3.59.86-2.56,2.99-4.12,4.9-5.73,8.13-6.83,17.04-12.51,26.57-17.2,7.18-3.53,14.7-5.76,22.78-5.29,4.67.27,9.3,1.03,13.75,2.59,1.13.4,2.2.97,3.46.67.71-1.38-.54-1.93-1.24-2.47-2.34-1.81-4.94-3.17-7.79-4.1-4.73-1.54-9.64-2.07-14.53-2.77-1.21-.1-2.41-.18-3.62-.32-2.53-.29-2.98-.78-2.75-3.38.19-2.13.86-4.18,1.52-6.22,2.37-7.44,5.41-14.62,9.93-20.97,6.74-9.48,15.6-16.55,26.12-21.57,9.73-4.64,19.85-6.9,30.72-6.54,13.96.46,26.06,5.48,37.09,13.64,2.69,1.99,5.35,4.01,8.03,6.02.1.28.18.77.57.44.3-.27.04-.59-.37-.66-1.46-5.06-4.12-9.58-6.5-14.22-1.9-3.7-1.98-3.73,1.7-5.85,17.1-9.85,34.75-18.57,53.06-25.95,3.72-1.5,7.49-2.89,11.27-4.25,2.52-.91,2.78-.81,2.63,1.98-.25,4.75.51,9.43.97,14.1.58,5.89,2.37,11.52,5.26,16.75,2.8,5.06,5.85,9.95,9.15,14.7.81,1.16.18,1.3-.78,1.3-4.18.02-8.34-.62-12.46-1.1-4.14-.48-8.31-.58-12.45-1.19-5.98-.88-11.86-1.92-17.6-3.91-5.05-1.75-10.09-3.57-15.33-4.75-1.73-.39-4.13-1.15-4.91.07-.9,1.4,1.03,3.02,2.25,4.21,5.64,5.5,12.09,9.69,19.51,12.47,7.58,2.84,15.45,4.29,23.39,5.59,13.11,2.15,25.86,5.68,38.36,10.19,7.19,2.6,14.25,5.45,21.16,8.7,1.86.87,2.71,1.97,2.97,4.22.86,7.43.44,14.8-.31,22.19-.07.65-.47.95-1.1.56-.45-.28-.86-.64-1.29-.97-8-6.18-16.64-11.32-25.7-15.77-.48-.24-.95-.51-1.46-.69-.22-.08-.57-.05-.75.09-.57.42.05.69.25.86,1.63,1.4,3.28,2.79,4.95,4.14,8.14,6.58,14.54,14.72,20.98,22.88,3.77,4.78,5.59,9.73,5.12,15.9-.49,6.44-.13,12.95-.14,19.43,0,5.13-.92,10.16-1.84,15.18-.42,4.96-1.07,9.86-3.32,14.39-3.04,6.13-7.92,10.46-13.78,13.73-8.8,4.9-18.34,7.21-28.29,8.48-7.55.96-15.09.93-22.59.62-18.95-.81-36.34-6.46-51.6-18.02-9.62-7.29-16.86-16.61-22.64-27.06-5.26-9.51-9.75-19.38-12.56-29.96Zm15.11,61.21c.06-.13.13-.27.19-.4.08.15.16.31.24.46-.15-.02-.29-.04-.44-.06Zm57.28,227.96c-23.4,1.26-46.78,3.01-70.14,5.25.22-34.43.44-68.87.66-103.3,22.9-.05,45.8-.08,68.7-.11-.03,6.83-.06,13.66-.09,20.5-15.43.19-30.85.43-46.28.72-.04,5.91-.07,11.83-.11,17.74,14.1-.46,28.21-.85,42.32-1.17-.03,6.62-.06,13.23-.09,19.85-14.12.48-28.24,1.06-42.35,1.76-.04,6.43-.08,12.87-.11,19.3,15.85-1.02,31.72-1.86,47.58-2.53-.03,7.33-.06,14.66-.1,22Zm-26.3-169.56c11.53,2.88,18.74,10.15,21.31,21.7,1.22,5.48,1.66,11.13,2.54,16.69.67,4.23,1.49,8.44,2.25,12.66.06.36.11.66.13.93h-16.17c-.02-.12-.04-.25-.05-.39-.47-5.21-.91-10.45-1.77-15.6-1.07-6.34-2.92-12.51-5-18.6-1.77-5.2-3.5-10.41-5.17-15.64-.6-1.88-.13-2.27,1.93-1.76Zm59.91,51.98c-3.26-1.09-6.45-2.53-9.56-4.31-7.89-4.52-12.58-11.5-14.37-20.42-.26-1.31-.65-2.62-.74-3.95-.1-1.59-.55-3.74.27-4.66.86-.96,2.82.48,4.3.67,5.45.72,10.92,1.58,16.41,1.75,9.56.28,19.14.26,28.71.04,7-.16,13.92-1.13,20.14-4.78.46-.27.93-.56,1.43-.71.74-.21,1.33.09,1.51.87.12.52.14,1.07.16,1.61.29,7.14.09,14.19-1.55,21.23-1.77,7.6-4.94,10.84-9.66,12.66h-37.05Zm65.14,115.16c-7.52-.04-15.05-.02-22.57.04.02-24.78.04-49.57.06-74.35-8.58.02-17.16.05-25.75.1.02-7.19.03-14.38.04-21.57,24.63-.01,49.26-.01,73.89,0,.01,7.18.03,14.36.04,21.54-8.58-.04-17.16-.07-25.75-.08.01,24.77.02,49.55.03,74.32Zm2.21-115.16c-5.99-2.39-8.93-7.52-10.22-14.13-1.28-6.55-.77-13.16-.8-19.76,0-1.79.5-2.19,2.25-1.65,5.01,1.55,10.12,2.64,15.29,3.38,7.74,1.12,15.49,1.99,23.32.86.4-.06.8-.15,1.2-.15,9.44.08,18.83-1.41,28.28-1,2.49.11,2.5.08,2.58,2.4.22,6.36-.28,12.59-2.35,18.69-1.91,5.61-5.46,9.27-10.55,11.35h-49Zm82.99,117.74c-7.52-.42-15.03-.79-22.55-1.1-.04-12.07-.09-24.15-.13-36.22-10.57-20.62-21.1-40.9-31.61-61.03,8.49,0,16.98,0,25.48.02,5.76,13.14,11.53,26.36,17.3,39.71,5.67-13.11,11.33-26.33,16.98-39.68,8.49.01,16.98.02,25.48.04-10.35,20.97-20.72,41.45-31.12,61.64.05,12.21.11,24.42.16,36.63Zm13.55-123.92c.27,2.05.05,4.13.27,6.18h-21.88c-.02-.21-.04-.42-.06-.66-.71-14.2,2.82-27.14,11.5-38.53,1.73-2.27,3.94-4.04,6.22-5.75,3.89-2.91,8.07-5.33,12.42-7.47.64-.31,1.31-.48,1.83.15.42.5,0,.99-.18,1.48-2.58,7.05-5.32,14.05-7.7,21.16-2.54,7.6-3.46,15.44-2.41,23.44Zm141.81,23.54c27.17-.36,42.64,27.58,42.81,62.91.16,35.36-14.95,60.4-42.07,55.87-27.12-4.4-42.65-31.15-42.86-62.36-.21-31.17,14.95-56.14,42.12-56.42Zm-87.68,0c17.14-.08,34.48,10.2,34.76,34.48-7.49-.28-14.98-.54-22.47-.79.3-9.53-7.09-12.75-13.97-12.87-4.83-.09-10.86,1.82-10.82,8.54.05,7.87,12.5,9.67,25.1,14.45,12.47,4.74,25.08,12.66,25.21,32.12.19,27.36-18.36,33.72-37.37,31.8-19.85-2.04-37.48-13.46-37.74-39.07,7.5.37,15,.78,22.5,1.22.56,12.02,6.87,16.33,16.43,17.11,6.77.55,13.77-1.77,13.71-9.57-.06-9.27-12.4-11.88-24.88-16.69-12.36-4.84-25.34-11.81-25.44-30.2-.12-21.85,18.79-30.47,34.96-30.53Zm-12.74-129.32c-3.37,8.16-7.35,15.99-12.98,22.85-3.38,4.12-6.6,8.43-11.13,11.45-3.29,4.01-7.64,6.73-11.76,9.73-5.87,4.27-12.15,7.96-17.88,12.44-2.36,1.84-4.33,4.04-6.51,6.05-3.76,3.48-7.6,6.81-12.23,9.15-3.05,1.54-6.28,2.37-9.59,2.88-5.19.79-10.43,1.26-15.68.87-10.61-.77-21.12-2.04-30.61-7.45-5.22-2.98-9.6-6.85-12.82-11.98-3.38-3.97-5.32-8.71-6.79-13.59-1.53-5.11-2.89-10.31-3.47-15.65-.04-.33-.25-.65-.37-.98-.18.35-.4.69-.52,1.06-.85,2.41-1.58,4.86-1.56,7.43,0,1.65-.41,3.19-.89,4.73-2.41,8.14-6.38,15.41-12.63,21.2-8.2,7.6-17.85,12.2-29.01,13.77-3.9.55-7.77.83-11.66.68-12.47-.49-23.66-4.45-33.22-12.63-2.48-2.12-4.36-4.8-6.31-7.36-3.93-5.15-8.53-9.27-14.8-11.35-9.4-3.12-15.92-9.89-21.58-17.56-4.82-6.52-8.36-13.77-11.22-21.35-.32-.86-.62-1.69-.39-2.6,2.57,1.97,4.38,4.66,6.42,7.09,8.76,10.43,19.68,17.38,32.69,21.17,5.81,1.69,11.75,2.6,17.75,3.4,9.97,1.34,19.96.98,29.9.51,9.91-.47,19.71-2.26,29.04-5.97,1.61-.64,3.29-1.13,4.94-1.69,5.36-2.54,10.12-6.06,15.08-9.26,9.14-5.91,6.71-4.76,14.81-.15,3.72,2.11,7.01,4.96,10.65,7.21,8.76,5.41,18.4,8.61,28.38,10.87,5.76,1.31,11.63,1.84,17.48,2.59,7.99,1.02,15.91.45,23.78-.31,12-1.15,23.3-4.87,33.66-11.2,7.04-4.3,13.51-9.3,19.28-15.2,3.68-3.76,7.32-7.55,10.98-11.32,0-.41.22-.88.57-.74.5.2.53.74.2,1.22Zm92.73,25.22c-11.83.38-22.34-2.68-30.49-11.82-.26-.29-.42-.68-.62-1.02-.3-.13-.73-.28-.4-.67.26-.31.63-.09.9.17,4.75,1.03,9.16,3.02,13.58,4.92,5.67,2.44,11.3,4.96,16.94,7.45.35.16.67.39,1.01.58-.31.13-.61.37-.92.38Zm19.56-17.84c-6.25.9-12.47,2.15-17.88,1.68-8.97.26-16.77-.7-24.15-4.09-5.08-2.33-9.48-5.64-13.7-9.2-7.48-6.31-13.81-13.61-18.04-22.53-.41-.87-1.65-2.08-.65-2.83.95-.72,1.76.74,2.48,1.4,1.39,1.27,2.69,2.65,4.02,3.99,11.41,11.53,25.04,19.32,40.56,23.82,6.18,1.79,12.59,2.56,18.92,3.72,2.9.53,5.75,1.24,8.5,2.31.49.19,1.11.3,1.11.95,0,.73-.66.71-1.17.78Zm5.92-39.97c-.95,4.46-2.02,8.89-2.21,13.48-.1,2.46-.39,2.58-2.83,3.03-9.87,1.84-19.86,2.33-29.8,1.48-12.54-1.07-24.02-5.34-33.98-13.38-8.99-7.26-15.07-16.27-18.01-27.5-.75-2.87-.19-4.9,1.72-6.95,4.6-4.94,9.25-9.8,14.85-13.64,3.2-2.66,6.89-4.59,10.34-6.89.32-.21.52-.59.78-.89-.36-.1-.75-.36-1.08-.29-11.22,2.26-22.23,5.06-31.26,12.69-1.17.99-1.35.71-1.53-.65-.92-7.07-2.51-13.98-5.71-20.41-5.63-11.31-14.67-19.08-25.79-24.62-6.51-3.24-13.43-5.28-20.56-6.65-.13-.03-.27-.07-.4-.06-1.2.03-2.42-.25-3.6.2.75.94,1.94.97,2.94,1.4,6.56,2.8,12.89,5.98,18.3,10.73,10.72,8.4,18.37,18.87,20.82,32.47,1.05,5.83.67,11.85-.78,17.65-3.56,14.19-8.97,27.6-18.11,39.16-5.78,7.31-12.57,13.66-20.24,19.04-11.48,8.07-24.15,13.36-37.87,16.03-3.52.69-7.15,1.34-10.83,1.07-3.25-.24-6.44.53-9.66.7-6.75.37-13.41-.68-20.1-1.33-5.95-.58-11.57-2.18-17.09-4.28-4.16-1.59-8.08-3.69-11.44-6.64-7.02-6.16-9.93-14.15-10.04-23.31-1.36-2.13-1.13-4.65-1.41-6.95-1.41-11.25-.94-22.59-1.01-33.9,0-1.3.45-2.35,1.07-3.39,5.05-8.48,11.11-16.1,18.3-22.92,6.99-6.63,14.95-11.81,23.09-16.79-.22-.27-.44-.54-.66-.82-10.28,3.11-19.55,8.12-28.02,14.67-3.94,3.04-7.84,6.14-12.06,8.8-1.3.82-1.57.3-1.7-.94-.74-7.4-1.04-14.78-.05-22.19.19-1.42.74-2.16,1.93-2.73,3.63-1.73,7.17-3.64,10.85-5.27,13.38-5.93,27.39-10.01,41.49-13.8,10.47-2.81,20.96-5.59,31.02-9.67,8.44-3.42,16.77-7.1,23.31-13.77-1.02-.34-2-.02-2.98.27-10.93,3.24-22.05,5.46-33.32,7.16-6.13.93-12.31,1.08-18.43,1.96-.88.13-1.28-.4-1.11-1.18.19-.91.53-1.79.86-2.66,3.49-9.02,6.02-18.28,7.32-27.88.6-4.39,1.49-8.74,1.52-13.18.01-1.57.56-1.59,1.96-1.19,8.13,2.32,15.94,5.49,23.74,8.72,11.15,4.61,22.07,9.72,32.85,15.13,3.23,1.62,6.51,3.11,10.04,4.02,1.88.48,1.84.55,1.22,2.83-1.76,6.52-2.82,13.12-2.55,19.9.02.39.17,1.13.22,1.12.65-.05.63-.68.81-1.11,1.22-2.99,2.67-5.84,4.5-8.52,4.01-5.88,9.91-8.87,16.43-10.93,1.02-.32,2.09-.47,3.13-.69,7.11-1.78,14.22-2.2,21.57-1.32,7.66.92,15.1,2.49,22.13,5.51,17.78,7.63,30.1,20.69,37.49,38.53,1.76,4.24,2.82,8.64,3.76,13.08.4,1.9.1,2.42-1.86,2.77-2.91.52-5.88.47-8.79,1.09-4.32.91-8.72,1.46-12.78,3.33-1.18.54-2.64.93-2.45,2.74,10.76-.81,21.42-.67,31.84,2.75,7.22,2.37,13.69,6.07,19.61,10.71,4.33,3.4,8.33,7.2,12.51,10.79.96.82,1.25,1.65.6,2.8-1.85,3.24-3.09,6.82-5.29,9.88-2.94,7.05-5.94,14.07-7.54,21.6Zm109.07.78c-.85,8.29-1.71,16.56-3.51,24.67-3.84,17.27-9.9,33.69-19.47,48.68-2.56,4.01-5.7,7.5-9.69,10.15-4.11,2.74-8.59,4.37-13.59,4.37-4.29,0-8.65.56-12.81-.93-2.5-.9-5.13-1.68-6.94-3.88-5.22-2.18-9.16-6.07-12.92-10.06-9.9-10.52-15.02-23.27-17-37.44-.8-5.73-1.62-11.46-1.48-17.26.31-13.51,3.45-26.22,10.49-37.91,4.64-7.7,9.19-15.46,12.99-23.63,3.23-6.95,5.6-14.19,7.04-21.7.61-3.16.67-6.42.99-9.63.09-.87.24-1.64,1.44-1.07,4.38,2.11,9.06,3.22,13.82,4.07.36.06.66.45.98.69,3.47.33,6.95.54,10.39,1.04,1.48.22,2.94.4,4.41.31,7.11-.42,14.21-.98,21.03-3.3,2.99-1.01,3.01-.95,3.89,1.94,3.49,11.54,6.83,23.15,8.66,35.06,1.82,11.84,2.51,23.76,1.28,35.81Zm12.74-191.8c-3,5.51-7.05,10.17-12.34,13.64-.32.21-.63,1.09-1.2.38-.14-.18.09-.72.25-1.05,2.19-4.32,4.53-8.56,6.57-12.95,6.1-13.17,10.8-26.83,13.76-41.05,1.7-8.2,2.71-16.57,1.79-24.88-1.7-15.35-7.48-28.79-20.29-38.38-3.49-2.61-3.69-2.65-5.45,1.16-4.36,9.46-11.93,15.72-20.37,21.26-9.14,6-19.23,9.42-29.88,11.26-7.87,1.36-15.88,1.61-23.79.82-8.58-.86-16.87-3.21-24.27-7.93-6.16-3.93-10.61-9.47-14.54-15.49-.52-.79-.97-1.62-1.5-2.39-1.04-1.5-1.4-4.04-3.07-4.35-1.47-.28-2.88,1.73-4.25,2.81-7.18,5.68-11.16,13.29-12.93,22.12-2.43,12.16-.04,23.79,4.3,35.11,5.38,14.04,12.84,26.96,22.4,38.54,7.3,8.85,16.6,14.79,28.13,16.85,5.14.92,10.23,2.11,15.33,3.22,3.02.66,5.89,1.78,8.67,3.12.34.16.63.43.95.65-.39.09-.78.26-1.17.25-4.06-.02-8.04.94-12.11.78-10.83-.44-21.41-1.87-31.07-7.24-4.51-2.51-8.46-5.7-11.85-9.63-10.45-12.14-18.11-25.94-24.32-40.62-2.71-6.42-5.56-12.74-6.95-19.65-1.71-8.5-2.58-17.05-1.93-25.68.35-4.65,1.31-9.27,2.79-13.76,3.33-10.05,10.27-16.91,19.23-21.9,14.29-7.95,29.74-12.7,45.61-16.3,7.14-1.62,14.42-2.09,21.65-2.18,8.32-.1,16.58,1.26,24.68,3.35,10.07,2.6,19.37,6.96,28.42,11.96,7.22,3.99,14.15,8.41,19.82,14.44,7.47,7.95,11.87,17.41,13.61,28.22.78,4.84.58,9.68.98,14.49-.38,21.59-5.32,42-15.67,61Z"/>
  <path class="cls-3" d="m162.53,746.41c-5.97.7-11.94,1.41-17.91,2.14-.02,10.19-.03,20.39-.05,30.58,5.96-1.02,11.91-2.02,17.88-2.99,7.08-1.17,12.02-5.68,12.06-16.16.04-11.19-5.24-14.35-11.98-13.58Z"/>
  <path class="cls-3" d="m171.17,711.79c.03-9.29-4.42-12.15-9.12-11.95-5.79.26-11.57.52-17.35.79-.01,8.52-.03,17.03-.04,25.55,5.77-.5,11.55-1,17.33-1.48,3.85-.33,9.16-3.81,9.19-12.92Z"/>
  <path class="cls-3" d="m750.45,764.22c14.47,1.85,19.91-14.8,19.81-32.25-.1-17.44-5.75-35.06-20.23-35.44-14.48-.38-19.93,15.93-19.82,32.38.11,16.46,5.77,33.5,20.24,35.31Z"/>
</svg>